<svg xmlns="http://www.w3.org/2000/svg" width="440" height="160" viewBox="0 0 440 160" role="img" aria-labelledby="title desc">
  <title id="title">Eidos</title>
  <desc id="desc">The Eidos owl and uppercase wordmark for dark backgrounds.</desc>
  <g transform="translate(16 16)"><path fill="#F4F0E8" d="M17 21 41 31q3 1 5-1l15-10q3-2 6 0l15 10q2 2 5 1l24-10q4-2 3 3l-7 54q0 4-3 7l-17 21q-2 3-5 1l-16-9q-2-1-4 0l-16 9q-3 2-5-1L24 85q-3-3-3-7l-7-54q-1-5 3-3Z"/><path fill="#20211F" d="m24 57 17-17q3-3 6 0l12 12q3 3 1 7l-7 14q-1 3-5 3H35q-4 0-6-3l-7-10q-2-3 2-6Zm80 0L87 40q-3-3-6 0L69 52q-3 3-1 7l7 14q1 3 5 3h13q4 0 6-3l7-10q2-3-2-6Z"/><rect width="15" height="15" x="36.5" y="48.5" rx="2.5" fill="#F4F0E8" transform="rotate(45 44 56)"/><rect width="15" height="15" x="76.5" y="48.5" rx="2.5" fill="#F4F0E8" transform="rotate(45 84 56)"/><path fill="#DE7A63" d="m64 59 9 16q1 2-1 4l-8 8-8-8q-2-2-1-4z"/></g>
  <g fill="#F4F0E8"><g transform="translate(174 111) scale(0.03800000 -0.03800000)"><path d="M140 0L140 1440L1072 1440L1072 1209L387 1209L387 863L952 863L952 631L387 631L387 231L1072 231L1072 0Z" transform="translate(0.000 0.000)"/><path d="M160 0L160 1440L407 1440L407 0Z" transform="translate(1264.105 0.000)"/><path d="M140 0L140 1440L600 1440Q618 1440 671.5 1439Q725 1438 775 1432Q947 1410 1065.5 1310.5Q1184 1211 1245.5 1057Q1307 903 1307 720Q1307 537 1245.5 383Q1184 229 1065.5 129.5Q947 30 775 8Q726 2 672 1Q618 0 600 0ZM391 233L600 233Q630 233 676.5 234.5Q723 236 759 243Q859 263 922.5 334Q986 405 1016 507Q1046 609 1046 720Q1046 835 1015 937Q984 1039 920.5 1108.5Q857 1178 759 1197Q723 1204 676.5 1205.5Q630 1207 600 1207L391 1207Z" transform="translate(1923.144 0.000)"/><path d="M751 -30Q535 -30 380.5 64.5Q226 159 143 328Q60 497 60 720Q60 943 143 1112Q226 1281 380.5 1375.5Q535 1470 751 1470Q967 1470 1121.5 1375.5Q1276 1281 1359 1112Q1442 943 1442 720Q1442 497 1359 328Q1276 159 1121.5 64.5Q967 -30 751 -30ZM751 203Q894 201 989.5 265.5Q1085 330 1133 447Q1181 564 1181 720Q1181 876 1133 991.5Q1085 1107 989.5 1171Q894 1235 751 1237Q608 1239 512.5 1174.5Q417 1110 369.5 993Q322 876 322 720Q321 564 369 448.5Q417 333 512.5 269Q608 205 751 203Z" transform="translate(3419.782 0.000)"/><path d="M675 -30Q517 -30 390 25.5Q263 81 181.5 184Q100 287 77 429L335 468Q366 340 464.5 270.5Q563 201 691 201Q766 201 833 224.5Q900 248 942 293.5Q984 339 984 404Q984 433 975 457Q966 481 947 500.5Q928 520 898.5 536.5Q869 553 828 566L456 675Q409 689 353.5 712.5Q298 736 248 777Q198 818 165.5 883Q133 948 133 1045Q133 1186 204.5 1280.5Q276 1375 395.5 1422Q515 1469 662 1468Q810 1467 926.5 1417.5Q1043 1368 1121 1274Q1199 1180 1232 1047L966 1001Q950 1076 904.5 1128Q859 1180 795 1207.5Q731 1235 659 1237Q588 1239 528 1216.5Q468 1194 430.5 1153.5Q393 1113 393 1058Q393 1005 424.5 973Q456 941 503 921.5Q550 902 598 889L854 818Q908 804 974.5 779.5Q1041 755 1102 712Q1163 669 1203 599Q1243 529 1243 421Q1243 308 1196 223Q1149 138 1069.5 82Q990 26 888 -2Q786 -30 675 -30Z" transform="translate(5014.021 0.000)"/></g></g>
</svg>
