<svg xmlns="http://www.w3.org/2000/svg" width="128" height="128" viewBox="0 0 128 128" role="img" aria-labelledby="title desc">
  <title id="title">Eidos</title>
  <desc id="desc">A calm geometric owl representing reason and the Greek roots of Eidos.</desc>
  <path fill="#242523" d="M17 21 41 31q3 1 5-1l15-10q3-2 6 0l15 10q2 2 5 1l24-10q4-2 3 3l-7 54q0 4-3 7l-17 21q-2 3-5 1l-16-9q-2-1-4 0l-16 9q-3 2-5-1L24 85q-3-3-3-7l-7-54q-1-5 3-3Z"/><path fill="#F4F0E8" d="m24 57 17-17q3-3 6 0l12 12q3 3 1 7l-7 14q-1 3-5 3H35q-4 0-6-3l-7-10q-2-3 2-6Zm80 0L87 40q-3-3-6 0L69 52q-3 3-1 7l7 14q1 3 5 3h13q4 0 6-3l7-10q2-3-2-6Z"/><rect width="15" height="15" x="36.5" y="48.5" rx="2.5" fill="#242523" transform="rotate(45 44 56)"/><rect width="15" height="15" x="76.5" y="48.5" rx="2.5" fill="#242523" transform="rotate(45 84 56)"/><path fill="#C9654F" d="m64 59 9 16q1 2-1 4l-8 8-8-8q-2-2-1-4z"/>
</svg>
