<svg xmlns="http://www.w3.org/2000/svg" width="1200" height="630" viewBox="0 0 1200 630">
  <defs>
    <radialGradient id="bg" cx="0" cy="0" r="1" gradientTransform="translate(910 80) rotate(139) scale(820 760)" gradientUnits="userSpaceOnUse">
      <stop stop-color="#28326B"/>
      <stop offset="0.56" stop-color="#11162A"/>
      <stop offset="1" stop-color="#080B16"/>
    </radialGradient>
    <linearGradient id="top" x1="18" y1="18" x2="112" y2="40" gradientUnits="userSpaceOnUse"><stop stop-color="#72E0F5"/><stop offset="1" stop-color="#6574FF"/></linearGradient>
    <linearGradient id="spine" x1="18" y1="18" x2="46" y2="110" gradientUnits="userSpaceOnUse"><stop stop-color="#6574FF"/><stop offset="1" stop-color="#8C5CFF"/></linearGradient>
    <linearGradient id="middle" x1="46" y1="52" x2="94" y2="72" gradientUnits="userSpaceOnUse"><stop stop-color="#8C5CFF"/><stop offset="1" stop-color="#34D3BA"/></linearGradient>
    <pattern id="grid" width="48" height="48" patternUnits="userSpaceOnUse"><path d="M48 0H0v48" fill="none" stroke="#A8B1FF" stroke-opacity=".08"/></pattern>
  </defs>
  <rect width="1200" height="630" fill="url(#bg)"/>
  <rect width="1200" height="630" fill="url(#grid)"/>
  <circle cx="1020" cy="110" r="320" fill="#6574FF" opacity=".08"/>
  <g transform="translate(88 104) scale(2.15)">
    <path fill="url(#spine)" d="M18 18l28 22v48l-28 22z"/>
    <path fill="url(#top)" d="M18 18h94L94 40H46z"/>
    <path fill="url(#middle)" d="M46 52h48L77 72H46z"/>
    <path fill="#7664F5" d="M46 88h66l-18 22H18z"/>
  </g>
  <g fill="#F6F7FF"><g transform="translate(405 250) scale(0.05900000 -0.05900000)"><path d="M140 0L140 1440L1072 1440L1072 1209L387 1209L387 863L952 863L952 631L387 631L387 231L1072 231L1072 0Z" transform="translate(0.000 0.000)"/><path d="M160 1241L160 1466L407 1466L407 1241ZM160 0L160 1080L407 1080L407 0Z" transform="translate(1172.000 0.000)"/><path d="M574 -30Q425 -30 314 45Q203 120 141.5 249Q80 378 80 540Q80 704 142 833Q204 962 317.5 1036Q431 1110 584 1110Q738 1110 842.5 1035Q947 960 1001 831.5Q1055 703 1055 540Q1055 378 1001 249Q947 120 840 45Q733 -30 574 -30ZM612 191Q708 191 766.5 235Q825 279 852 358Q879 437 879 540Q879 644 852 722.5Q825 801 768.5 845Q712 889 621 889Q525 889 463 842Q401 795 371.5 716Q342 637 342 540Q342 443 371 363.5Q400 284 459.5 237.5Q519 191 612 191ZM879 0L879 755L848 755L848 1440L1097 1440L1097 0Z" transform="translate(1738.933 0.000)"/><path d="M619 -30Q456 -30 335 43Q214 116 147 244.5Q80 373 80 540Q80 709 148.5 837.5Q217 966 338 1038Q459 1110 619 1110Q782 1110 903.5 1037Q1025 964 1092.5 835.5Q1160 707 1160 540Q1160 372 1092 243.5Q1024 115 902.5 42.5Q781 -30 619 -30ZM619 201Q760 201 829 296Q898 391 898 540Q898 695 828 787Q758 879 619 879Q524 879 462.5 836Q401 793 371.5 717Q342 641 342 540Q342 385 412 293Q482 201 619 201Z" transform="translate(2975.867 0.000)"/><path d="M558 -30Q357 -30 232 60.5Q107 151 80 315L332 354Q351 275 415 229.5Q479 184 576 184Q660 184 706 217Q752 250 752 309Q752 345 734.5 366.5Q717 388 659 409Q601 430 480 462Q345 497 265 538.5Q185 580 150 637.5Q115 695 115 776Q115 878 168 953Q221 1028 316.5 1069Q412 1110 541 1110Q667 1110 765 1071Q863 1032 923 960Q983 888 997 791L744 746Q736 813 684 852Q632 891 546 896Q463 901 412 871.5Q361 842 361 789Q361 758 382 736.5Q403 715 466 694Q529 673 655 641Q783 607 859.5 565Q936 523 970.5 464Q1005 405 1005 321Q1005 157 886.5 63.5Q768 -30 558 -30Z" transform="translate(4189.733 0.000)"/></g></g>
  <g fill="#C2C9DD"><g transform="translate(412 330) scale(0.01750000 -0.01750000)"><path d="M511 0L511 1271L20 1271L20 1440L1180 1440L1180 1271L689 1271L689 0Z" transform="translate(0.000 0.000)"/><path d="M290 -480L499 88L502 -80L30 1080L217 1080L587 147L523 147L870 1080L1051 1080L463 -480Z" transform="translate(1060.000 0.000)"/><path d="M636 -30Q484 -30 380 45.5Q276 121 222.5 250Q169 379 169 541Q169 704 222.5 832.5Q276 961 380.5 1035.5Q485 1110 637 1110Q787 1110 895.5 1035.5Q1004 961 1062 832Q1120 703 1120 541Q1120 379 1062 249.5Q1004 120 895.5 45Q787 -30 636 -30ZM139 -480L139 1080L298 1080L298 285L318 285L318 -480ZM614 133Q720 133 790.5 187Q861 241 896 333.5Q931 426 931 541Q931 655 896 747Q861 839 790 893Q719 947 609 947Q504 947 435 895.5Q366 844 332 752Q298 660 298 541Q298 423 331.5 330.5Q365 238 435 185.5Q505 133 614 133Z" transform="translate(2136.000 0.000)"/><path d="M608 -30Q449 -30 330.5 40.5Q212 111 146 237.5Q80 364 80 533Q80 710 145 839.5Q210 969 326.5 1039.5Q443 1110 600 1110Q763 1110 877.5 1035Q992 960 1049.5 821Q1107 682 1099 490L919 490L919 554Q916 753 838 851.5Q760 950 606 950Q441 950 355 844Q269 738 269 540Q269 349 355 244Q441 139 600 139Q707 139 786 188Q865 237 910 329L1081 270Q1018 127 891.5 48.5Q765 -30 608 -30ZM209 490L209 633L1007 633L1007 490Z" transform="translate(3336.000 0.000)"/><path d="M564 -30Q413 -30 305 45Q197 120 138.5 249.5Q80 379 80 541Q80 703 138.5 832Q197 961 305 1035.5Q413 1110 563 1110Q716 1110 820 1035.5Q924 961 977.5 832.5Q1031 704 1031 541Q1031 379 977.5 250Q924 121 820 45.5Q716 -30 564 -30ZM586 133Q695 133 765 185.5Q835 238 868.5 330.5Q902 423 902 541Q902 660 868 752Q834 844 765.5 895.5Q697 947 591 947Q481 947 409.5 893Q338 839 303.5 747Q269 655 269 541Q269 426 304 333.5Q339 241 409.5 187Q480 133 586 133ZM902 0L902 795L882 795L882 1440L1061 1440L1061 0Z" transform="translate(4517.000 0.000)"/><path d="" transform="translate(5718.000 0.000)"/><path d="M243 0L243 1139Q243 1180 246.5 1224Q250 1268 264.5 1309.5Q279 1351 311 1386Q348 1426 392 1444Q436 1462 481.5 1466Q527 1470 568 1470L705 1470L705 1322L578 1322Q499 1322 460 1283Q421 1244 421 1167L421 0ZM60 933L60 1080L705 1080L705 933Z" transform="translate(6118.000 0.000)"/><path d="M600 -30Q439 -30 322.5 43Q206 116 143 244.5Q80 373 80 541Q80 710 144 838.5Q208 967 325 1038.5Q442 1110 600 1110Q762 1110 879 1037Q996 964 1058.5 836Q1121 708 1121 541Q1121 372 1058 243.5Q995 115 878 42.5Q761 -30 600 -30ZM600 139Q767 139 849.5 251Q932 363 932 541Q932 723 849 832Q766 941 600 941Q487 941 414 890Q341 839 305 749Q269 659 269 541Q269 359 353 249Q437 139 600 139Z" transform="translate(6803.000 0.000)"/><path d="M140 0L140 1080L299 1080L299 819L273 853Q292 903 322.5 945Q353 987 391 1014Q433 1048 486 1065.5Q539 1083 594 1086.5Q649 1090 697 1080L697 913Q641 927 574 920Q507 913 450 872Q398 834 369.5 781.5Q341 729 330 667.5Q319 606 319 542L319 0Z" transform="translate(8004.000 0.000)"/><path d="M1431 0L1432 691Q1432 812 1367.5 880.5Q1303 949 1200 949Q1140 949 1086 921Q1032 893 998 835Q964 777 964 686L870 724Q868 839 917.5 925.5Q967 1012 1053 1060Q1139 1108 1247 1108Q1416 1108 1513 1005Q1610 902 1610 730L1609 0ZM139 0L139 1080L298 1080L298 791L318 791L318 0ZM786 0L787 684Q787 807 723 878Q659 949 553 949Q448 949 383 876.5Q318 804 318 686L224 742Q224 847 274 929.5Q324 1012 410 1060Q496 1108 605 1108Q714 1108 795 1061.5Q876 1015 920 929.5Q964 844 964 727L963 0Z" transform="translate(8751.000 0.000)"/><path d="M548 -29Q355 -29 231.5 55.5Q108 140 80 292L262 321Q284 233 363 181.5Q442 130 559 130Q669 130 732.5 176Q796 222 796 301Q796 346 775 374.5Q754 403 688.5 428Q623 453 491 489Q348 527 266 567.5Q184 608 149 662Q114 716 114 794Q114 889 166 960Q218 1031 311.5 1070.5Q405 1110 529 1110Q652 1110 749 1071Q846 1032 905.5 960.5Q965 889 976 794L794 761Q781 847 710 897.5Q639 948 529 951Q424 954 358.5 913Q293 872 293 803Q293 763 317.5 735.5Q342 708 408.5 683Q475 658 602 626Q745 590 827.5 547.5Q910 505 945 447.5Q980 390 980 306Q980 150 865 60.5Q750 -29 548 -29Z" transform="translate(10481.000 0.000)"/><path d="M172 0L172 196L368 196L368 0Z" transform="translate(11542.000 0.000)"/><path d="" transform="translate(12082.000 0.000)"/><path d="M140 0L140 1440L320 1440L1071 315L1071 1440L1251 1440L1251 0L1071 0L320 1126L320 0Z" transform="translate(12482.000 0.000)"/><path d="M447 -30Q326 -30 244.5 14.5Q163 59 121.5 132Q80 205 80 292Q80 377 112 439Q144 501 203.5 543Q263 585 345 609Q422 630 517 645.5Q612 661 710 674Q808 687 894 699L830 662Q832 805 772 874.5Q712 944 564 944Q466 944 392.5 899Q319 854 289 755L120 806Q159 948 271 1029Q383 1110 566 1110Q713 1110 818.5 1057.5Q924 1005 970 899Q993 849 999 790.5Q1005 732 1005 668L1005 0L847 0L847 259L884 235Q823 103 713 36.5Q603 -30 447 -30ZM474 119Q570 119 640.5 153.5Q711 188 754 244.5Q797 301 810 368Q824 418 826 479Q828 540 828 574L890 547Q803 534 718.5 523Q634 512 559.5 500Q485 488 425 471Q381 457 342.5 434.5Q304 412 280.5 377.5Q257 343 257 293Q257 249 279.5 209Q302 169 349.5 144Q397 119 474 119Z" transform="translate(13873.000 0.000)"/><path d="M743 0Q647 -20 553.5 -16.5Q460 -13 386.5 21.5Q313 56 276 130Q244 194 241.5 259.5Q239 325 239 408L239 1380L417 1380L417 416Q417 350 418.5 303Q420 256 439 222Q475 158 553.5 147Q632 136 743 153ZM20 933L20 1080L743 1080L743 933Z" transform="translate(14998.000 0.000)"/><path d="M160 1271L160 1455L338 1455L338 1271ZM160 0L160 1080L338 1080L338 0Z" transform="translate(15821.000 0.000)"/><path d="M432 0L40 1080L220 1080L523 227L825 1080L1006 1080L614 0Z" transform="translate(16319.000 0.000)"/><path d="M608 -30Q449 -30 330.5 40.5Q212 111 146 237.5Q80 364 80 533Q80 710 145 839.5Q210 969 326.5 1039.5Q443 1110 600 1110Q763 1110 877.5 1035Q992 960 1049.5 821Q1107 682 1099 490L919 490L919 554Q916 753 838 851.5Q760 950 606 950Q441 950 355 844Q269 738 269 540Q269 349 355 244Q441 139 600 139Q707 139 786 188Q865 237 910 329L1081 270Q1018 127 891.5 48.5Q765 -30 608 -30ZM209 490L209 633L1007 633L1007 490Z" transform="translate(17325.000 0.000)"/><path d="" transform="translate(18506.000 0.000)"/><path d="M636 -30Q484 -30 380 45.5Q276 121 222.5 250Q169 379 169 541Q169 704 222.5 832.5Q276 961 380.5 1035.5Q485 1110 637 1110Q787 1110 895.5 1035.5Q1004 961 1062 832Q1120 703 1120 541Q1120 379 1062 249.5Q1004 120 895.5 45Q787 -30 636 -30ZM139 -480L139 1080L298 1080L298 285L318 285L318 -480ZM614 133Q720 133 790.5 187Q861 241 896 333.5Q931 426 931 541Q931 655 896 747Q861 839 790 893Q719 947 609 947Q504 947 435 895.5Q366 844 332 752Q298 660 298 541Q298 423 331.5 330.5Q365 238 435 185.5Q505 133 614 133Z" transform="translate(18906.000 0.000)"/><path d="M140 0L140 1080L299 1080L299 819L273 853Q292 903 322.5 945Q353 987 391 1014Q433 1048 486 1065.5Q539 1083 594 1086.5Q649 1090 697 1080L697 913Q641 927 574 920Q507 913 450 872Q398 834 369.5 781.5Q341 729 330 667.5Q319 606 319 542L319 0Z" transform="translate(20106.000 0.000)"/><path d="M600 -30Q439 -30 322.5 43Q206 116 143 244.5Q80 373 80 541Q80 710 144 838.5Q208 967 325 1038.5Q442 1110 600 1110Q762 1110 879 1037Q996 964 1058.5 836Q1121 708 1121 541Q1121 372 1058 243.5Q995 115 878 42.5Q761 -30 600 -30ZM600 139Q767 139 849.5 251Q932 363 932 541Q932 723 849 832Q766 941 600 941Q487 941 414 890Q341 839 305 749Q269 659 269 541Q269 359 353 249Q437 139 600 139Z" transform="translate(20833.000 0.000)"/><path d="M577 -510Q492 -510 411 -484Q330 -458 262.5 -405.5Q195 -353 150 -273L313 -187Q353 -266 426.5 -302Q500 -338 578 -338Q681 -338 748.5 -300.5Q816 -263 849 -189Q882 -115 881 -5L881 290L902 290L902 1080L1060 1080L1060 -7Q1060 -52 1057.5 -92.5Q1055 -133 1047 -173Q1026 -288 964 -362.5Q902 -437 804 -473.5Q706 -510 577 -510ZM564 -30Q413 -30 305 45Q197 120 138.5 249.5Q80 379 80 541Q80 703 138.5 832Q197 961 305 1035.5Q413 1110 563 1110Q716 1110 820 1035.5Q924 961 977.5 832.5Q1031 704 1031 541Q1031 379 977.5 250Q924 121 820 45.5Q716 -30 564 -30ZM586 133Q695 133 765 185.5Q835 238 868.5 330.5Q902 423 902 541Q902 660 868 752Q834 844 765.5 895.5Q697 947 591 947Q481 947 409.5 893Q338 839 303.5 747Q269 655 269 541Q269 426 304 333.5Q339 241 409.5 187Q480 133 586 133Z" transform="translate(22034.000 0.000)"/><path d="M140 0L140 1080L299 1080L299 819L273 853Q292 903 322.5 945Q353 987 391 1014Q433 1048 486 1065.5Q539 1083 594 1086.5Q649 1090 697 1080L697 913Q641 927 574 920Q507 913 450 872Q398 834 369.5 781.5Q341 729 330 667.5Q319 606 319 542L319 0Z" transform="translate(23234.000 0.000)"/><path d="M447 -30Q326 -30 244.5 14.5Q163 59 121.5 132Q80 205 80 292Q80 377 112 439Q144 501 203.5 543Q263 585 345 609Q422 630 517 645.5Q612 661 710 674Q808 687 894 699L830 662Q832 805 772 874.5Q712 944 564 944Q466 944 392.5 899Q319 854 289 755L120 806Q159 948 271 1029Q383 1110 566 1110Q713 1110 818.5 1057.5Q924 1005 970 899Q993 849 999 790.5Q1005 732 1005 668L1005 0L847 0L847 259L884 235Q823 103 713 36.5Q603 -30 447 -30ZM474 119Q570 119 640.5 153.5Q711 188 754 244.5Q797 301 810 368Q824 418 826 479Q828 540 828 574L890 547Q803 534 718.5 523Q634 512 559.5 500Q485 488 425 471Q381 457 342.5 434.5Q304 412 280.5 377.5Q257 343 257 293Q257 249 279.5 209Q302 169 349.5 144Q397 119 474 119Z" transform="translate(23946.000 0.000)"/><path d="M1431 0L1432 691Q1432 812 1367.5 880.5Q1303 949 1200 949Q1140 949 1086 921Q1032 893 998 835Q964 777 964 686L870 724Q868 839 917.5 925.5Q967 1012 1053 1060Q1139 1108 1247 1108Q1416 1108 1513 1005Q1610 902 1610 730L1609 0ZM139 0L139 1080L298 1080L298 791L318 791L318 0ZM786 0L787 684Q787 807 723 878Q659 949 553 949Q448 949 383 876.5Q318 804 318 686L224 742Q224 847 274 929.5Q324 1012 410 1060Q496 1108 605 1108Q714 1108 795 1061.5Q876 1015 920 929.5Q964 844 964 727L963 0Z" transform="translate(25071.000 0.000)"/><path d="M548 -29Q355 -29 231.5 55.5Q108 140 80 292L262 321Q284 233 363 181.5Q442 130 559 130Q669 130 732.5 176Q796 222 796 301Q796 346 775 374.5Q754 403 688.5 428Q623 453 491 489Q348 527 266 567.5Q184 608 149 662Q114 716 114 794Q114 889 166 960Q218 1031 311.5 1070.5Q405 1110 529 1110Q652 1110 749 1071Q846 1032 905.5 960.5Q965 889 976 794L794 761Q781 847 710 897.5Q639 948 529 951Q424 954 358.5 913Q293 872 293 803Q293 763 317.5 735.5Q342 708 408.5 683Q475 658 602 626Q745 590 827.5 547.5Q910 505 945 447.5Q980 390 980 306Q980 150 865 60.5Q750 -29 548 -29Z" transform="translate(26801.000 0.000)"/><path d="M172 0L172 196L368 196L368 0Z" transform="translate(27862.000 0.000)"/></g></g>
  <rect x="412" y="382" width="212" height="46" rx="23" fill="#6574FF" fill-opacity=".16" stroke="#8892FF" stroke-opacity=".5"/>
  <g fill="#DDE1FF"><g transform="translate(436 413) scale(0.00950000 -0.00950000)"><path d="M658 -30Q505 -30 388.5 36Q272 102 206 218.5Q140 335 140 488L140 952Q140 1105 206 1222Q272 1339 388.5 1404.5Q505 1470 658 1470Q811 1470 928 1404.5Q1045 1339 1110.5 1222Q1176 1105 1176 952L1176 488Q1176 335 1110.5 218.5Q1045 102 928 36Q811 -30 658 -30ZM658 199Q734 199 796 235.5Q858 272 894 333.5Q930 395 930 471L930 970Q930 1047 894 1108.5Q858 1170 796 1206.5Q734 1243 658 1243Q582 1243 520 1206.5Q458 1170 422 1108.5Q386 1047 386 970L386 471Q386 395 422 333.5Q458 272 520 235.5Q582 199 658 199Z" transform="translate(0.000 0.000)"/><path d="M180 0L180 247L427 247L427 0Z" transform="translate(1463.368 0.000)"/><path d="M567 -30Q458 -30 362.5 15.5Q267 61 198.5 141Q130 221 100 327L332 389Q346 331 384 289Q422 247 472 224Q522 201 576 201Q646 201 704 235Q762 269 796 326.5Q830 384 830 454Q830 524 795.5 581.5Q761 639 703 672.5Q645 706 576 706Q493 706 438.5 676Q384 646 355 612L149 678L193 1440L975 1440L975 1214L322 1214L412 1299L380 769L336 823Q392 874 466 899Q540 924 609 924Q744 924 848.5 862.5Q953 801 1012.5 695Q1072 589 1072 454Q1072 319 1002 209.5Q932 100 817.5 35Q703 -30 567 -30Z" transform="translate(2217.404 0.000)"/><path d="M180 0L180 247L427 247L427 0Z" transform="translate(3537.105 0.000)"/><path d="M658 -30Q505 -30 388.5 36Q272 102 206 218.5Q140 335 140 488L140 952Q140 1105 206 1222Q272 1339 388.5 1404.5Q505 1470 658 1470Q811 1470 928 1404.5Q1045 1339 1110.5 1222Q1176 1105 1176 952L1176 488Q1176 335 1110.5 218.5Q1045 102 928 36Q811 -30 658 -30ZM658 199Q734 199 796 235.5Q858 272 894 333.5Q930 395 930 471L930 970Q930 1047 894 1108.5Q858 1170 796 1206.5Q734 1243 658 1243Q582 1243 520 1206.5Q458 1170 422 1108.5Q386 1047 386 970L386 471Q386 395 422 333.5Q458 272 520 235.5Q582 199 658 199Z" transform="translate(4291.140 0.000)"/><path d="M120 536L120 725L720 725L720 536Z" transform="translate(5754.509 0.000)"/><path d="M442 -30Q325 -30 244 14.5Q163 59 121.5 133Q80 207 80 296Q80 374 106 436.5Q132 499 186 544.5Q240 590 326 619Q391 641 478.5 657.5Q566 674 668.5 688.5Q771 703 883 720L797 671Q798 783 747 836Q696 889 575 889Q502 889 434 855Q366 821 339 738L119 807Q159 944 271.5 1027Q384 1110 575 1110Q720 1110 829 1063Q938 1016 991 909Q1020 852 1026 792.5Q1032 733 1032 663L1032 0L821 0L821 234L856 196Q783 79 685.5 24.5Q588 -30 442 -30ZM490 162Q572 162 630 191.5Q688 221 722.5 262.5Q757 304 769 341Q788 387 790.5 446.5Q793 506 793 543L867 521Q758 504 680 491Q602 478 546 466.5Q490 455 447 441Q406 426 376.5 406Q347 386 331.5 360Q316 334 316 299Q316 260 336 229Q356 198 394.5 180Q433 162 490 162Z" transform="translate(6741.877 0.000)"/><path d="M160 0L160 1470L401 1470L401 0Z" transform="translate(8041.579 0.000)"/><path d="M659 -30Q501 -30 394 45Q287 120 233 249.5Q179 379 179 540Q179 703 233 832Q287 961 391.5 1035.5Q496 1110 650 1110Q803 1110 916 1036Q1029 962 1090.5 833Q1152 704 1152 540Q1152 378 1091 249Q1030 120 919 45Q808 -30 659 -30ZM138 -480L138 1080L351 1080L351 322L381 322L381 -480ZM622 186Q716 186 777 233Q838 280 867.5 360.5Q897 441 897 540Q897 638 867 718.5Q837 799 774 846.5Q711 894 614 894Q522 894 464 849.5Q406 805 378.5 725.5Q351 646 351 540Q351 436 378.5 355.5Q406 275 465.5 230.5Q525 186 622 186Z" transform="translate(8749.614 0.000)"/><path d="M887 0L887 520Q887 571 880 633Q873 695 847.5 752.5Q822 810 771.5 847Q721 884 635 884Q589 884 544 869Q499 854 463 817.5Q427 781 404.5 717.5Q382 654 382 555L239 616Q239 754 292.5 866Q346 978 450 1044.5Q554 1111 706 1111Q826 1111 904 1071Q982 1031 1028 969Q1074 907 1096 837Q1118 767 1124.5 704.5Q1131 642 1131 603L1131 0ZM138 0L138 1440L353 1440L353 682L382 682L382 0Z" transform="translate(10128.982 0.000)"/><path d="M442 -30Q325 -30 244 14.5Q163 59 121.5 133Q80 207 80 296Q80 374 106 436.5Q132 499 186 544.5Q240 590 326 619Q391 641 478.5 657.5Q566 674 668.5 688.5Q771 703 883 720L797 671Q798 783 747 836Q696 889 575 889Q502 889 434 855Q366 821 339 738L119 807Q159 944 271.5 1027Q384 1110 575 1110Q720 1110 829 1063Q938 1016 991 909Q1020 852 1026 792.5Q1032 733 1032 663L1032 0L821 0L821 234L856 196Q783 79 685.5 24.5Q588 -30 442 -30ZM490 162Q572 162 630 191.5Q688 221 722.5 262.5Q757 304 769 341Q788 387 790.5 446.5Q793 506 793 543L867 521Q758 504 680 491Q602 478 546 466.5Q490 455 447 441Q406 426 376.5 406Q347 386 331.5 360Q316 334 316 299Q316 260 336 229Q356 198 394.5 180Q433 162 490 162Z" transform="translate(11527.351 0.000)"/><path d="M180 0L180 247L427 247L427 0Z" transform="translate(12827.053 0.000)"/><path d="M390 0L390 1177L120 1012L120 1278L390 1440L636 1440L636 0Z" transform="translate(13341.088 0.000)"/></g></g>
  <g fill="#8490AE"><g transform="translate(88 558) scale(0.01100000 -0.01100000)"><path d="M140 0L140 1440L980 1440L980 1262L318 1262L318 809L860 809L860 631L318 631L318 0Z" transform="translate(0.000 0.000)"/><path d="M550 -28Q445 -28 371 5Q297 38 248 93Q199 148 171 215Q143 282 131.5 352Q120 422 120 483L120 1080L300 1080L300 539Q300 463 314 392Q328 321 361.5 264Q395 207 451.5 174Q508 141 593 141Q660 141 714.5 164Q769 187 808 232.5Q847 278 868.5 348Q890 418 890 511L1007 475Q1007 319 950.5 206Q894 93 791.5 32.5Q689 -28 550 -28ZM910 0L910 289L890 289L890 1080L1069 1080L1069 0Z" transform="translate(1020.000 0.000)"/><path d="M909 0L909 541Q909 617 895 688Q881 759 848 816Q815 873 758.5 906Q702 939 616 939Q549 939 494.5 916Q440 893 401 847.5Q362 802 340.5 732.5Q319 663 319 569L202 605Q202 761 258.5 874Q315 987 417.5 1047.5Q520 1108 659 1108Q764 1108 838 1075Q912 1042 961 987Q1010 932 1038 865Q1066 798 1077.5 728Q1089 658 1089 597L1089 0ZM139 0L139 1080L299 1080L299 791L319 791L319 0Z" transform="translate(2229.000 0.000)"/><path d="M595 -30Q431 -30 316.5 43.5Q202 117 141.5 246Q81 375 80 540Q81 708 143 836.5Q205 965 320 1037.5Q435 1110 597 1110Q768 1110 891.5 1026Q1015 942 1057 796L881 743Q846 837 769.5 889Q693 941 595 941Q484 941 412 889.5Q340 838 305 747.5Q270 657 269 540Q271 360 352.5 249.5Q434 139 595 139Q701 139 770.5 187.5Q840 236 877 328L1057 281Q1001 130 882 50Q763 -30 595 -30Z" transform="translate(3428.000 0.000)"/><path d="M743 0Q647 -20 553.5 -16.5Q460 -13 386.5 21.5Q313 56 276 130Q244 194 241.5 259.5Q239 325 239 408L239 1380L417 1380L417 416Q417 350 418.5 303Q420 256 439 222Q475 158 553.5 147Q632 136 743 153ZM20 933L20 1080L743 1080L743 933Z" transform="translate(4550.000 0.000)"/><path d="M160 1271L160 1455L338 1455L338 1271ZM160 0L160 1080L338 1080L338 0Z" transform="translate(5373.000 0.000)"/><path d="M600 -30Q439 -30 322.5 43Q206 116 143 244.5Q80 373 80 541Q80 710 144 838.5Q208 967 325 1038.5Q442 1110 600 1110Q762 1110 879 1037Q996 964 1058.5 836Q1121 708 1121 541Q1121 372 1058 243.5Q995 115 878 42.5Q761 -30 600 -30ZM600 139Q767 139 849.5 251Q932 363 932 541Q932 723 849 832Q766 941 600 941Q487 941 414 890Q341 839 305 749Q269 659 269 541Q269 359 353 249Q437 139 600 139Z" transform="translate(5871.000 0.000)"/><path d="M909 0L909 541Q909 617 895 688Q881 759 848 816Q815 873 758.5 906Q702 939 616 939Q549 939 494.5 916Q440 893 401 847.5Q362 802 340.5 732.5Q319 663 319 569L202 605Q202 761 258.5 874Q315 987 417.5 1047.5Q520 1108 659 1108Q764 1108 838 1075Q912 1042 961 987Q1010 932 1038 865Q1066 798 1077.5 728Q1089 658 1089 597L1089 0ZM139 0L139 1080L299 1080L299 791L319 791L319 0Z" transform="translate(7072.000 0.000)"/><path d="M447 -30Q326 -30 244.5 14.5Q163 59 121.5 132Q80 205 80 292Q80 377 112 439Q144 501 203.5 543Q263 585 345 609Q422 630 517 645.5Q612 661 710 674Q808 687 894 699L830 662Q832 805 772 874.5Q712 944 564 944Q466 944 392.5 899Q319 854 289 755L120 806Q159 948 271 1029Q383 1110 566 1110Q713 1110 818.5 1057.5Q924 1005 970 899Q993 849 999 790.5Q1005 732 1005 668L1005 0L847 0L847 259L884 235Q823 103 713 36.5Q603 -30 447 -30ZM474 119Q570 119 640.5 153.5Q711 188 754 244.5Q797 301 810 368Q824 418 826 479Q828 540 828 574L890 547Q803 534 718.5 523Q634 512 559.5 500Q485 488 425 471Q381 457 342.5 434.5Q304 412 280.5 377.5Q257 343 257 293Q257 249 279.5 209Q302 169 349.5 144Q397 119 474 119Z" transform="translate(8281.000 0.000)"/><path d="M160 0L160 1470L338 1470L338 0Z" transform="translate(9406.000 0.000)"/><path d="" transform="translate(9904.000 0.000)"/><path d="M595 -30Q431 -30 316.5 43.5Q202 117 141.5 246Q81 375 80 540Q81 708 143 836.5Q205 965 320 1037.5Q435 1110 597 1110Q768 1110 891.5 1026Q1015 942 1057 796L881 743Q846 837 769.5 889Q693 941 595 941Q484 941 412 889.5Q340 838 305 747.5Q270 657 269 540Q271 360 352.5 249.5Q434 139 595 139Q701 139 770.5 187.5Q840 236 877 328L1057 281Q1001 130 882 50Q763 -30 595 -30Z" transform="translate(10304.000 0.000)"/><path d="M600 -30Q439 -30 322.5 43Q206 116 143 244.5Q80 373 80 541Q80 710 144 838.5Q208 967 325 1038.5Q442 1110 600 1110Q762 1110 879 1037Q996 964 1058.5 836Q1121 708 1121 541Q1121 372 1058 243.5Q995 115 878 42.5Q761 -30 600 -30ZM600 139Q767 139 849.5 251Q932 363 932 541Q932 723 849 832Q766 941 600 941Q487 941 414 890Q341 839 305 749Q269 659 269 541Q269 359 353 249Q437 139 600 139Z" transform="translate(11396.000 0.000)"/><path d="M140 0L140 1080L299 1080L299 819L273 853Q292 903 322.5 945Q353 987 391 1014Q433 1048 486 1065.5Q539 1083 594 1086.5Q649 1090 697 1080L697 913Q641 927 574 920Q507 913 450 872Q398 834 369.5 781.5Q341 729 330 667.5Q319 606 319 542L319 0Z" transform="translate(12597.000 0.000)"/><path d="M608 -30Q449 -30 330.5 40.5Q212 111 146 237.5Q80 364 80 533Q80 710 145 839.5Q210 969 326.5 1039.5Q443 1110 600 1110Q763 1110 877.5 1035Q992 960 1049.5 821Q1107 682 1099 490L919 490L919 554Q916 753 838 851.5Q760 950 606 950Q441 950 355 844Q269 738 269 540Q269 349 355 244Q441 139 600 139Q707 139 786 188Q865 237 910 329L1081 270Q1018 127 891.5 48.5Q765 -30 608 -30ZM209 490L209 633L1007 633L1007 490Z" transform="translate(13324.000 0.000)"/><path d="" transform="translate(14505.000 0.000)"/><path d="M243 510Q192 510 156 544Q120 578 120 630Q120 682 156 716Q192 750 243 750Q291 750 325.5 716Q360 682 360 630Q360 578 325.5 544Q291 510 243 510Z" transform="translate(14905.000 0.000)"/><path d="" transform="translate(15385.000 0.000)"/><path d="M743 0Q647 -20 553.5 -16.5Q460 -13 386.5 21.5Q313 56 276 130Q244 194 241.5 259.5Q239 325 239 408L239 1380L417 1380L417 416Q417 350 418.5 303Q420 256 439 222Q475 158 553.5 147Q632 136 743 153ZM20 933L20 1080L743 1080L743 933Z" transform="translate(15785.000 0.000)"/><path d="M290 -480L499 88L502 -80L30 1080L217 1080L587 147L523 147L870 1080L1051 1080L463 -480Z" transform="translate(16578.000 0.000)"/><path d="M636 -30Q484 -30 380 45.5Q276 121 222.5 250Q169 379 169 541Q169 704 222.5 832.5Q276 961 380.5 1035.5Q485 1110 637 1110Q787 1110 895.5 1035.5Q1004 961 1062 832Q1120 703 1120 541Q1120 379 1062 249.5Q1004 120 895.5 45Q787 -30 636 -30ZM139 -480L139 1080L298 1080L298 285L318 285L318 -480ZM614 133Q720 133 790.5 187Q861 241 896 333.5Q931 426 931 541Q931 655 896 747Q861 839 790 893Q719 947 609 947Q504 947 435 895.5Q366 844 332 752Q298 660 298 541Q298 423 331.5 330.5Q365 238 435 185.5Q505 133 614 133Z" transform="translate(17654.000 0.000)"/><path d="M608 -30Q449 -30 330.5 40.5Q212 111 146 237.5Q80 364 80 533Q80 710 145 839.5Q210 969 326.5 1039.5Q443 1110 600 1110Q763 1110 877.5 1035Q992 960 1049.5 821Q1107 682 1099 490L919 490L919 554Q916 753 838 851.5Q760 950 606 950Q441 950 355 844Q269 738 269 540Q269 349 355 244Q441 139 600 139Q707 139 786 188Q865 237 910 329L1081 270Q1018 127 891.5 48.5Q765 -30 608 -30ZM209 490L209 633L1007 633L1007 490Z" transform="translate(18854.000 0.000)"/><path d="M564 -30Q413 -30 305 45Q197 120 138.5 249.5Q80 379 80 541Q80 703 138.5 832Q197 961 305 1035.5Q413 1110 563 1110Q716 1110 820 1035.5Q924 961 977.5 832.5Q1031 704 1031 541Q1031 379 977.5 250Q924 121 820 45.5Q716 -30 564 -30ZM586 133Q695 133 765 185.5Q835 238 868.5 330.5Q902 423 902 541Q902 660 868 752Q834 844 765.5 895.5Q697 947 591 947Q481 947 409.5 893Q338 839 303.5 747Q269 655 269 541Q269 426 304 333.5Q339 241 409.5 187Q480 133 586 133ZM902 0L902 795L882 795L882 1440L1061 1440L1061 0Z" transform="translate(20035.000 0.000)"/><path d="" transform="translate(21236.000 0.000)"/><path d="M1431 0L1432 691Q1432 812 1367.5 880.5Q1303 949 1200 949Q1140 949 1086 921Q1032 893 998 835Q964 777 964 686L870 724Q868 839 917.5 925.5Q967 1012 1053 1060Q1139 1108 1247 1108Q1416 1108 1513 1005Q1610 902 1610 730L1609 0ZM139 0L139 1080L298 1080L298 791L318 791L318 0ZM786 0L787 684Q787 807 723 878Q659 949 553 949Q448 949 383 876.5Q318 804 318 686L224 742Q224 847 274 929.5Q324 1012 410 1060Q496 1108 605 1108Q714 1108 795 1061.5Q876 1015 920 929.5Q964 844 964 727L963 0Z" transform="translate(21636.000 0.000)"/><path d="M608 -30Q449 -30 330.5 40.5Q212 111 146 237.5Q80 364 80 533Q80 710 145 839.5Q210 969 326.5 1039.5Q443 1110 600 1110Q763 1110 877.5 1035Q992 960 1049.5 821Q1107 682 1099 490L919 490L919 554Q916 753 838 851.5Q760 950 606 950Q441 950 355 844Q269 738 269 540Q269 349 355 244Q441 139 600 139Q707 139 786 188Q865 237 910 329L1081 270Q1018 127 891.5 48.5Q765 -30 608 -30ZM209 490L209 633L1007 633L1007 490Z" transform="translate(23356.000 0.000)"/><path d="M743 0Q647 -20 553.5 -16.5Q460 -13 386.5 21.5Q313 56 276 130Q244 194 241.5 259.5Q239 325 239 408L239 1380L417 1380L417 416Q417 350 418.5 303Q420 256 439 222Q475 158 553.5 147Q632 136 743 153ZM20 933L20 1080L743 1080L743 933Z" transform="translate(24537.000 0.000)"/><path d="M447 -30Q326 -30 244.5 14.5Q163 59 121.5 132Q80 205 80 292Q80 377 112 439Q144 501 203.5 543Q263 585 345 609Q422 630 517 645.5Q612 661 710 674Q808 687 894 699L830 662Q832 805 772 874.5Q712 944 564 944Q466 944 392.5 899Q319 854 289 755L120 806Q159 948 271 1029Q383 1110 566 1110Q713 1110 818.5 1057.5Q924 1005 970 899Q993 849 999 790.5Q1005 732 1005 668L1005 0L847 0L847 259L884 235Q823 103 713 36.5Q603 -30 447 -30ZM474 119Q570 119 640.5 153.5Q711 188 754 244.5Q797 301 810 368Q824 418 826 479Q828 540 828 574L890 547Q803 534 718.5 523Q634 512 559.5 500Q485 488 425 471Q381 457 342.5 434.5Q304 412 280.5 377.5Q257 343 257 293Q257 249 279.5 209Q302 169 349.5 144Q397 119 474 119Z" transform="translate(25360.000 0.000)"/><path d="M636 -30Q484 -30 380 45.5Q276 121 222.5 250Q169 379 169 541Q169 704 222.5 832.5Q276 961 380.5 1035.5Q485 1110 637 1110Q787 1110 895.5 1035.5Q1004 961 1062 832Q1120 703 1120 541Q1120 379 1062 249.5Q1004 120 895.5 45Q787 -30 636 -30ZM139 -480L139 1080L298 1080L298 285L318 285L318 -480ZM614 133Q720 133 790.5 187Q861 241 896 333.5Q931 426 931 541Q931 655 896 747Q861 839 790 893Q719 947 609 947Q504 947 435 895.5Q366 844 332 752Q298 660 298 541Q298 423 331.5 330.5Q365 238 435 185.5Q505 133 614 133Z" transform="translate(26485.000 0.000)"/><path d="M140 0L140 1080L299 1080L299 819L273 853Q292 903 322.5 945Q353 987 391 1014Q433 1048 486 1065.5Q539 1083 594 1086.5Q649 1090 697 1080L697 913Q641 927 574 920Q507 913 450 872Q398 834 369.5 781.5Q341 729 330 667.5Q319 606 319 542L319 0Z" transform="translate(27685.000 0.000)"/><path d="M600 -30Q439 -30 322.5 43Q206 116 143 244.5Q80 373 80 541Q80 710 144 838.5Q208 967 325 1038.5Q442 1110 600 1110Q762 1110 879 1037Q996 964 1058.5 836Q1121 708 1121 541Q1121 372 1058 243.5Q995 115 878 42.5Q761 -30 600 -30ZM600 139Q767 139 849.5 251Q932 363 932 541Q932 723 849 832Q766 941 600 941Q487 941 414 890Q341 839 305 749Q269 659 269 541Q269 359 353 249Q437 139 600 139Z" transform="translate(28412.000 0.000)"/><path d="M577 -510Q492 -510 411 -484Q330 -458 262.5 -405.5Q195 -353 150 -273L313 -187Q353 -266 426.5 -302Q500 -338 578 -338Q681 -338 748.5 -300.5Q816 -263 849 -189Q882 -115 881 -5L881 290L902 290L902 1080L1060 1080L1060 -7Q1060 -52 1057.5 -92.5Q1055 -133 1047 -173Q1026 -288 964 -362.5Q902 -437 804 -473.5Q706 -510 577 -510ZM564 -30Q413 -30 305 45Q197 120 138.5 249.5Q80 379 80 541Q80 703 138.5 832Q197 961 305 1035.5Q413 1110 563 1110Q716 1110 820 1035.5Q924 961 977.5 832.5Q1031 704 1031 541Q1031 379 977.5 250Q924 121 820 45.5Q716 -30 564 -30ZM586 133Q695 133 765 185.5Q835 238 868.5 330.5Q902 423 902 541Q902 660 868 752Q834 844 765.5 895.5Q697 947 591 947Q481 947 409.5 893Q338 839 303.5 747Q269 655 269 541Q269 426 304 333.5Q339 241 409.5 187Q480 133 586 133Z" transform="translate(29613.000 0.000)"/><path d="M140 0L140 1080L299 1080L299 819L273 853Q292 903 322.5 945Q353 987 391 1014Q433 1048 486 1065.5Q539 1083 594 1086.5Q649 1090 697 1080L697 913Q641 927 574 920Q507 913 450 872Q398 834 369.5 781.5Q341 729 330 667.5Q319 606 319 542L319 0Z" transform="translate(30813.000 0.000)"/><path d="M447 -30Q326 -30 244.5 14.5Q163 59 121.5 132Q80 205 80 292Q80 377 112 439Q144 501 203.5 543Q263 585 345 609Q422 630 517 645.5Q612 661 710 674Q808 687 894 699L830 662Q832 805 772 874.5Q712 944 564 944Q466 944 392.5 899Q319 854 289 755L120 806Q159 948 271 1029Q383 1110 566 1110Q713 1110 818.5 1057.5Q924 1005 970 899Q993 849 999 790.5Q1005 732 1005 668L1005 0L847 0L847 259L884 235Q823 103 713 36.5Q603 -30 447 -30ZM474 119Q570 119 640.5 153.5Q711 188 754 244.5Q797 301 810 368Q824 418 826 479Q828 540 828 574L890 547Q803 534 718.5 523Q634 512 559.5 500Q485 488 425 471Q381 457 342.5 434.5Q304 412 280.5 377.5Q257 343 257 293Q257 249 279.5 209Q302 169 349.5 144Q397 119 474 119Z" transform="translate(31525.000 0.000)"/><path d="M1431 0L1432 691Q1432 812 1367.5 880.5Q1303 949 1200 949Q1140 949 1086 921Q1032 893 998 835Q964 777 964 686L870 724Q868 839 917.5 925.5Q967 1012 1053 1060Q1139 1108 1247 1108Q1416 1108 1513 1005Q1610 902 1610 730L1609 0ZM139 0L139 1080L298 1080L298 791L318 791L318 0ZM786 0L787 684Q787 807 723 878Q659 949 553 949Q448 949 383 876.5Q318 804 318 686L224 742Q224 847 274 929.5Q324 1012 410 1060Q496 1108 605 1108Q714 1108 795 1061.5Q876 1015 920 929.5Q964 844 964 727L963 0Z" transform="translate(32650.000 0.000)"/><path d="M1431 0L1432 691Q1432 812 1367.5 880.5Q1303 949 1200 949Q1140 949 1086 921Q1032 893 998 835Q964 777 964 686L870 724Q868 839 917.5 925.5Q967 1012 1053 1060Q1139 1108 1247 1108Q1416 1108 1513 1005Q1610 902 1610 730L1609 0ZM139 0L139 1080L298 1080L298 791L318 791L318 0ZM786 0L787 684Q787 807 723 878Q659 949 553 949Q448 949 383 876.5Q318 804 318 686L224 742Q224 847 274 929.5Q324 1012 410 1060Q496 1108 605 1108Q714 1108 795 1061.5Q876 1015 920 929.5Q964 844 964 727L963 0Z" transform="translate(34380.000 0.000)"/><path d="M160 1271L160 1455L338 1455L338 1271ZM160 0L160 1080L338 1080L338 0Z" transform="translate(36110.000 0.000)"/><path d="M909 0L909 541Q909 617 895 688Q881 759 848 816Q815 873 758.5 906Q702 939 616 939Q549 939 494.5 916Q440 893 401 847.5Q362 802 340.5 732.5Q319 663 319 569L202 605Q202 761 258.5 874Q315 987 417.5 1047.5Q520 1108 659 1108Q764 1108 838 1075Q912 1042 961 987Q1010 932 1038 865Q1066 798 1077.5 728Q1089 658 1089 597L1089 0ZM139 0L139 1080L299 1080L299 791L319 791L319 0Z" transform="translate(36608.000 0.000)"/><path d="M577 -510Q492 -510 411 -484Q330 -458 262.5 -405.5Q195 -353 150 -273L313 -187Q353 -266 426.5 -302Q500 -338 578 -338Q681 -338 748.5 -300.5Q816 -263 849 -189Q882 -115 881 -5L881 290L902 290L902 1080L1060 1080L1060 -7Q1060 -52 1057.5 -92.5Q1055 -133 1047 -173Q1026 -288 964 -362.5Q902 -437 804 -473.5Q706 -510 577 -510ZM564 -30Q413 -30 305 45Q197 120 138.5 249.5Q80 379 80 541Q80 703 138.5 832Q197 961 305 1035.5Q413 1110 563 1110Q716 1110 820 1035.5Q924 961 977.5 832.5Q1031 704 1031 541Q1031 379 977.5 250Q924 121 820 45.5Q716 -30 564 -30ZM586 133Q695 133 765 185.5Q835 238 868.5 330.5Q902 423 902 541Q902 660 868 752Q834 844 765.5 895.5Q697 947 591 947Q481 947 409.5 893Q338 839 303.5 747Q269 655 269 541Q269 426 304 333.5Q339 241 409.5 187Q480 133 586 133Z" transform="translate(37817.000 0.000)"/><path d="" transform="translate(39017.000 0.000)"/><path d="M243 510Q192 510 156 544Q120 578 120 630Q120 682 156 716Q192 750 243 750Q291 750 325.5 716Q360 682 360 630Q360 578 325.5 544Q291 510 243 510Z" transform="translate(39417.000 0.000)"/><path d="" transform="translate(39897.000 0.000)"/><path d="M160 0L160 1440L338 1440L338 169L1006 169L1006 0Z" transform="translate(40297.000 0.000)"/><path d="M160 0L160 1440L338 1440L338 169L1006 169L1006 0Z" transform="translate(41333.000 0.000)"/><path d="M492 0L10 1440L195 1440L614 189L1037 1440L1222 1440L740 0Z" transform="translate(42209.000 0.000)"/><path d="M140 0L140 1440L302 1440L846 293L1387 1440L1551 1440L1551 1L1382 1L1382 1049L893 0L798 0L309 1049L309 0Z" transform="translate(43441.000 0.000)"/><path d="" transform="translate(45132.000 0.000)"/><path d="M743 0Q647 -20 553.5 -16.5Q460 -13 386.5 21.5Q313 56 276 130Q244 194 241.5 259.5Q239 325 239 408L239 1380L417 1380L417 416Q417 350 418.5 303Q420 256 439 222Q475 158 553.5 147Q632 136 743 153ZM20 933L20 1080L743 1080L743 933Z" transform="translate(45532.000 0.000)"/><path d="M600 -30Q439 -30 322.5 43Q206 116 143 244.5Q80 373 80 541Q80 710 144 838.5Q208 967 325 1038.5Q442 1110 600 1110Q762 1110 879 1037Q996 964 1058.5 836Q1121 708 1121 541Q1121 372 1058 243.5Q995 115 878 42.5Q761 -30 600 -30ZM600 139Q767 139 849.5 251Q932 363 932 541Q932 723 849 832Q766 941 600 941Q487 941 414 890Q341 839 305 749Q269 659 269 541Q269 359 353 249Q437 139 600 139Z" transform="translate(46310.000 0.000)"/><path d="M600 -30Q439 -30 322.5 43Q206 116 143 244.5Q80 373 80 541Q80 710 144 838.5Q208 967 325 1038.5Q442 1110 600 1110Q762 1110 879 1037Q996 964 1058.5 836Q1121 708 1121 541Q1121 372 1058 243.5Q995 115 878 42.5Q761 -30 600 -30ZM600 139Q767 139 849.5 251Q932 363 932 541Q932 723 849 832Q766 941 600 941Q487 941 414 890Q341 839 305 749Q269 659 269 541Q269 359 353 249Q437 139 600 139Z" transform="translate(47511.000 0.000)"/><path d="M160 0L160 1470L338 1470L338 0Z" transform="translate(48712.000 0.000)"/><path d="M595 -30Q431 -30 316.5 43.5Q202 117 141.5 246Q81 375 80 540Q81 708 143 836.5Q205 965 320 1037.5Q435 1110 597 1110Q768 1110 891.5 1026Q1015 942 1057 796L881 743Q846 837 769.5 889Q693 941 595 941Q484 941 412 889.5Q340 838 305 747.5Q270 657 269 540Q271 360 352.5 249.5Q434 139 595 139Q701 139 770.5 187.5Q840 236 877 328L1057 281Q1001 130 882 50Q763 -30 595 -30Z" transform="translate(49210.000 0.000)"/><path d="M909 0L909 541Q909 617 895 688Q881 759 848 816Q815 873 758.5 906Q702 939 616 939Q549 939 494.5 916Q440 893 401 847.5Q362 802 340.5 732.5Q319 663 319 569L202 605Q202 761 258.5 874Q315 987 417.5 1047.5Q520 1108 659 1108Q764 1108 838 1075Q912 1042 961 987Q1010 932 1038 865Q1066 798 1077.5 728Q1089 658 1089 597L1089 0ZM139 0L139 1440L299 1440L299 645L319 645L319 0Z" transform="translate(50332.000 0.000)"/><path d="M447 -30Q326 -30 244.5 14.5Q163 59 121.5 132Q80 205 80 292Q80 377 112 439Q144 501 203.5 543Q263 585 345 609Q422 630 517 645.5Q612 661 710 674Q808 687 894 699L830 662Q832 805 772 874.5Q712 944 564 944Q466 944 392.5 899Q319 854 289 755L120 806Q159 948 271 1029Q383 1110 566 1110Q713 1110 818.5 1057.5Q924 1005 970 899Q993 849 999 790.5Q1005 732 1005 668L1005 0L847 0L847 259L884 235Q823 103 713 36.5Q603 -30 447 -30ZM474 119Q570 119 640.5 153.5Q711 188 754 244.5Q797 301 810 368Q824 418 826 479Q828 540 828 574L890 547Q803 534 718.5 523Q634 512 559.5 500Q485 488 425 471Q381 457 342.5 434.5Q304 412 280.5 377.5Q257 343 257 293Q257 249 279.5 209Q302 169 349.5 144Q397 119 474 119Z" transform="translate(51541.000 0.000)"/><path d="M160 1271L160 1455L338 1455L338 1271ZM160 0L160 1080L338 1080L338 0Z" transform="translate(52666.000 0.000)"/><path d="M909 0L909 541Q909 617 895 688Q881 759 848 816Q815 873 758.5 906Q702 939 616 939Q549 939 494.5 916Q440 893 401 847.5Q362 802 340.5 732.5Q319 663 319 569L202 605Q202 761 258.5 874Q315 987 417.5 1047.5Q520 1108 659 1108Q764 1108 838 1075Q912 1042 961 987Q1010 932 1038 865Q1066 798 1077.5 728Q1089 658 1089 597L1089 0ZM139 0L139 1080L299 1080L299 791L319 791L319 0Z" transform="translate(53164.000 0.000)"/></g></g>
</svg>
