<svg xmlns="http://www.w3.org/2000/svg" width="1200" height="630" viewBox="0 0 1200 630">
  <rect width="1200" height="630" fill="#F4F0E8"/>
  <rect width="18" height="630" fill="#C9654F"/>
  <path d="M88 83h1024" stroke="#D8D0C4"/>
  <g transform="translate(82 150) scale(2.35)"><path fill="#242523" d="M17 21 41 31q3 1 5-1l15-10q3-2 6 0l15 10q2 2 5 1l24-10q4-2 3 3l-7 54q0 4-3 7l-17 21q-2 3-5 1l-16-9q-2-1-4 0l-16 9q-3 2-5-1L24 85q-3-3-3-7l-7-54q-1-5 3-3Z"/><path fill="#F4F0E8" d="m24 57 17-17q3-3 6 0l12 12q3 3 1 7l-7 14q-1 3-5 3H35q-4 0-6-3l-7-10q-2-3 2-6Zm80 0L87 40q-3-3-6 0L69 52q-3 3-1 7l7 14q1 3 5 3h13q4 0 6-3l7-10q2-3-2-6Z"/><rect width="15" height="15" x="36.5" y="48.5" rx="2.5" fill="#242523" transform="rotate(45 44 56)"/><rect width="15" height="15" x="76.5" y="48.5" rx="2.5" fill="#242523" transform="rotate(45 84 56)"/><path fill="#C9654F" d="m64 59 9 16q1 2-1 4l-8 8-8-8q-2-2-1-4z"/></g>
  <g fill="#242523"><g transform="translate(442 239) scale(0.05400000 -0.05400000)"><path d="M140 0L140 1440L1072 1440L1072 1209L387 1209L387 863L952 863L952 631L387 631L387 231L1072 231L1072 0Z" transform="translate(0.000 0.000)"/><path d="M160 0L160 1440L407 1440L407 0Z" transform="translate(1264.593 0.000)"/><path d="M140 0L140 1440L600 1440Q618 1440 671.5 1439Q725 1438 775 1432Q947 1410 1065.5 1310.5Q1184 1211 1245.5 1057Q1307 903 1307 720Q1307 537 1245.5 383Q1184 229 1065.5 129.5Q947 30 775 8Q726 2 672 1Q618 0 600 0ZM391 233L600 233Q630 233 676.5 234.5Q723 236 759 243Q859 263 922.5 334Q986 405 1016 507Q1046 609 1046 720Q1046 835 1015 937Q984 1039 920.5 1108.5Q857 1178 759 1197Q723 1204 676.5 1205.5Q630 1207 600 1207L391 1207Z" transform="translate(1924.119 0.000)"/><path d="M751 -30Q535 -30 380.5 64.5Q226 159 143 328Q60 497 60 720Q60 943 143 1112Q226 1281 380.5 1375.5Q535 1470 751 1470Q967 1470 1121.5 1375.5Q1276 1281 1359 1112Q1442 943 1442 720Q1442 497 1359 328Q1276 159 1121.5 64.5Q967 -30 751 -30ZM751 203Q894 201 989.5 265.5Q1085 330 1133 447Q1181 564 1181 720Q1181 876 1133 991.5Q1085 1107 989.5 1171Q894 1235 751 1237Q608 1239 512.5 1174.5Q417 1110 369.5 993Q322 876 322 720Q321 564 369 448.5Q417 333 512.5 269Q608 205 751 203Z" transform="translate(3421.244 0.000)"/><path d="M675 -30Q517 -30 390 25.5Q263 81 181.5 184Q100 287 77 429L335 468Q366 340 464.5 270.5Q563 201 691 201Q766 201 833 224.5Q900 248 942 293.5Q984 339 984 404Q984 433 975 457Q966 481 947 500.5Q928 520 898.5 536.5Q869 553 828 566L456 675Q409 689 353.5 712.5Q298 736 248 777Q198 818 165.5 883Q133 948 133 1045Q133 1186 204.5 1280.5Q276 1375 395.5 1422Q515 1469 662 1468Q810 1467 926.5 1417.5Q1043 1368 1121 1274Q1199 1180 1232 1047L966 1001Q950 1076 904.5 1128Q859 1180 795 1207.5Q731 1235 659 1237Q588 1239 528 1216.5Q468 1194 430.5 1153.5Q393 1113 393 1058Q393 1005 424.5 973Q456 941 503 921.5Q550 902 598 889L854 818Q908 804 974.5 779.5Q1041 755 1102 712Q1163 669 1203 599Q1243 529 1243 421Q1243 308 1196 223Q1149 138 1069.5 82Q990 26 888 -2Q786 -30 675 -30Z" transform="translate(5015.970 0.000)"/></g></g>
  <g fill="#676960"><g transform="translate(446 318) scale(0.01700000 -0.01700000)"><path d="M40 0L522 1440L770 1440L1252 0L1067 0L616 1336L672 1336L225 0ZM272 337L272 504L1020 504L1020 337Z" transform="translate(0.000 0.000)"/><path d="" transform="translate(1292.000 0.000)"/><path d="M548 -29Q355 -29 231.5 55.5Q108 140 80 292L262 321Q284 233 363 181.5Q442 130 559 130Q669 130 732.5 176Q796 222 796 301Q796 346 775 374.5Q754 403 688.5 428Q623 453 491 489Q348 527 266 567.5Q184 608 149 662Q114 716 114 794Q114 889 166 960Q218 1031 311.5 1070.5Q405 1110 529 1110Q652 1110 749 1071Q846 1032 905.5 960.5Q965 889 976 794L794 761Q781 847 710 897.5Q639 948 529 951Q424 954 358.5 913Q293 872 293 803Q293 763 317.5 735.5Q342 708 408.5 683Q475 658 602 626Q745 590 827.5 547.5Q910 505 945 447.5Q980 390 980 306Q980 150 865 60.5Q750 -29 548 -29Z" transform="translate(1692.000 0.000)"/><path d="M743 0Q647 -20 553.5 -16.5Q460 -13 386.5 21.5Q313 56 276 130Q244 194 241.5 259.5Q239 325 239 408L239 1380L417 1380L417 416Q417 350 418.5 303Q420 256 439 222Q475 158 553.5 147Q632 136 743 153ZM20 933L20 1080L743 1080L743 933Z" transform="translate(2753.000 0.000)"/><path d="M447 -30Q326 -30 244.5 14.5Q163 59 121.5 132Q80 205 80 292Q80 377 112 439Q144 501 203.5 543Q263 585 345 609Q422 630 517 645.5Q612 661 710 674Q808 687 894 699L830 662Q832 805 772 874.5Q712 944 564 944Q466 944 392.5 899Q319 854 289 755L120 806Q159 948 271 1029Q383 1110 566 1110Q713 1110 818.5 1057.5Q924 1005 970 899Q993 849 999 790.5Q1005 732 1005 668L1005 0L847 0L847 259L884 235Q823 103 713 36.5Q603 -30 447 -30ZM474 119Q570 119 640.5 153.5Q711 188 754 244.5Q797 301 810 368Q824 418 826 479Q828 540 828 574L890 547Q803 534 718.5 523Q634 512 559.5 500Q485 488 425 471Q381 457 342.5 434.5Q304 412 280.5 377.5Q257 343 257 293Q257 249 279.5 209Q302 169 349.5 144Q397 119 474 119Z" transform="translate(3576.000 0.000)"/><path d="M743 0Q647 -20 553.5 -16.5Q460 -13 386.5 21.5Q313 56 276 130Q244 194 241.5 259.5Q239 325 239 408L239 1380L417 1380L417 416Q417 350 418.5 303Q420 256 439 222Q475 158 553.5 147Q632 136 743 153ZM20 933L20 1080L743 1080L743 933Z" transform="translate(4701.000 0.000)"/><path d="M160 1271L160 1455L338 1455L338 1271ZM160 0L160 1080L338 1080L338 0Z" transform="translate(5524.000 0.000)"/><path d="M595 -30Q431 -30 316.5 43.5Q202 117 141.5 246Q81 375 80 540Q81 708 143 836.5Q205 965 320 1037.5Q435 1110 597 1110Q768 1110 891.5 1026Q1015 942 1057 796L881 743Q846 837 769.5 889Q693 941 595 941Q484 941 412 889.5Q340 838 305 747.5Q270 657 269 540Q271 360 352.5 249.5Q434 139 595 139Q701 139 770.5 187.5Q840 236 877 328L1057 281Q1001 130 882 50Q763 -30 595 -30Z" transform="translate(6022.000 0.000)"/><path d="M447 -30Q326 -30 244.5 14.5Q163 59 121.5 132Q80 205 80 292Q80 377 112 439Q144 501 203.5 543Q263 585 345 609Q422 630 517 645.5Q612 661 710 674Q808 687 894 699L830 662Q832 805 772 874.5Q712 944 564 944Q466 944 392.5 899Q319 854 289 755L120 806Q159 948 271 1029Q383 1110 566 1110Q713 1110 818.5 1057.5Q924 1005 970 899Q993 849 999 790.5Q1005 732 1005 668L1005 0L847 0L847 259L884 235Q823 103 713 36.5Q603 -30 447 -30ZM474 119Q570 119 640.5 153.5Q711 188 754 244.5Q797 301 810 368Q824 418 826 479Q828 540 828 574L890 547Q803 534 718.5 523Q634 512 559.5 500Q485 488 425 471Q381 457 342.5 434.5Q304 412 280.5 377.5Q257 343 257 293Q257 249 279.5 209Q302 169 349.5 144Q397 119 474 119Z" transform="translate(7134.000 0.000)"/><path d="M160 0L160 1470L338 1470L338 0Z" transform="translate(8259.000 0.000)"/><path d="M160 0L160 1470L338 1470L338 0Z" transform="translate(8757.000 0.000)"/><path d="M290 -480L499 88L502 -80L30 1080L217 1080L587 147L523 147L870 1080L1051 1080L463 -480Z" transform="translate(9255.000 0.000)"/><path d="" transform="translate(10331.000 0.000)"/><path d="M743 0Q647 -20 553.5 -16.5Q460 -13 386.5 21.5Q313 56 276 130Q244 194 241.5 259.5Q239 325 239 408L239 1380L417 1380L417 416Q417 350 418.5 303Q420 256 439 222Q475 158 553.5 147Q632 136 743 153ZM20 933L20 1080L743 1080L743 933Z" transform="translate(10731.000 0.000)"/><path d="M290 -480L499 88L502 -80L30 1080L217 1080L587 147L523 147L870 1080L1051 1080L463 -480Z" transform="translate(11524.000 0.000)"/><path d="M636 -30Q484 -30 380 45.5Q276 121 222.5 250Q169 379 169 541Q169 704 222.5 832.5Q276 961 380.5 1035.5Q485 1110 637 1110Q787 1110 895.5 1035.5Q1004 961 1062 832Q1120 703 1120 541Q1120 379 1062 249.5Q1004 120 895.5 45Q787 -30 636 -30ZM139 -480L139 1080L298 1080L298 285L318 285L318 -480ZM614 133Q720 133 790.5 187Q861 241 896 333.5Q931 426 931 541Q931 655 896 747Q861 839 790 893Q719 947 609 947Q504 947 435 895.5Q366 844 332 752Q298 660 298 541Q298 423 331.5 330.5Q365 238 435 185.5Q505 133 614 133Z" transform="translate(12600.000 0.000)"/><path d="M608 -30Q449 -30 330.5 40.5Q212 111 146 237.5Q80 364 80 533Q80 710 145 839.5Q210 969 326.5 1039.5Q443 1110 600 1110Q763 1110 877.5 1035Q992 960 1049.5 821Q1107 682 1099 490L919 490L919 554Q916 753 838 851.5Q760 950 606 950Q441 950 355 844Q269 738 269 540Q269 349 355 244Q441 139 600 139Q707 139 786 188Q865 237 910 329L1081 270Q1018 127 891.5 48.5Q765 -30 608 -30ZM209 490L209 633L1007 633L1007 490Z" transform="translate(13800.000 0.000)"/><path d="M564 -30Q413 -30 305 45Q197 120 138.5 249.5Q80 379 80 541Q80 703 138.5 832Q197 961 305 1035.5Q413 1110 563 1110Q716 1110 820 1035.5Q924 961 977.5 832.5Q1031 704 1031 541Q1031 379 977.5 250Q924 121 820 45.5Q716 -30 564 -30ZM586 133Q695 133 765 185.5Q835 238 868.5 330.5Q902 423 902 541Q902 660 868 752Q834 844 765.5 895.5Q697 947 591 947Q481 947 409.5 893Q338 839 303.5 747Q269 655 269 541Q269 426 304 333.5Q339 241 409.5 187Q480 133 586 133ZM902 0L902 795L882 795L882 1440L1061 1440L1061 0Z" transform="translate(14981.000 0.000)"/><path d="" transform="translate(16182.000 0.000)"/><path d="M909 0L909 541Q909 617 895 688Q881 759 848 816Q815 873 758.5 906Q702 939 616 939Q549 939 494.5 916Q440 893 401 847.5Q362 802 340.5 732.5Q319 663 319 569L202 605Q202 761 258.5 874Q315 987 417.5 1047.5Q520 1108 659 1108Q764 1108 838 1075Q912 1042 961 987Q1010 932 1038 865Q1066 798 1077.5 728Q1089 658 1089 597L1089 0ZM139 0L139 1080L299 1080L299 791L319 791L319 0Z" transform="translate(16582.000 0.000)"/><path d="M447 -30Q326 -30 244.5 14.5Q163 59 121.5 132Q80 205 80 292Q80 377 112 439Q144 501 203.5 543Q263 585 345 609Q422 630 517 645.5Q612 661 710 674Q808 687 894 699L830 662Q832 805 772 874.5Q712 944 564 944Q466 944 392.5 899Q319 854 289 755L120 806Q159 948 271 1029Q383 1110 566 1110Q713 1110 818.5 1057.5Q924 1005 970 899Q993 849 999 790.5Q1005 732 1005 668L1005 0L847 0L847 259L884 235Q823 103 713 36.5Q603 -30 447 -30ZM474 119Q570 119 640.5 153.5Q711 188 754 244.5Q797 301 810 368Q824 418 826 479Q828 540 828 574L890 547Q803 534 718.5 523Q634 512 559.5 500Q485 488 425 471Q381 457 342.5 434.5Q304 412 280.5 377.5Q257 343 257 293Q257 249 279.5 209Q302 169 349.5 144Q397 119 474 119Z" transform="translate(17791.000 0.000)"/><path d="M743 0Q647 -20 553.5 -16.5Q460 -13 386.5 21.5Q313 56 276 130Q244 194 241.5 259.5Q239 325 239 408L239 1380L417 1380L417 416Q417 350 418.5 303Q420 256 439 222Q475 158 553.5 147Q632 136 743 153ZM20 933L20 1080L743 1080L743 933Z" transform="translate(18916.000 0.000)"/><path d="M160 1271L160 1455L338 1455L338 1271ZM160 0L160 1080L338 1080L338 0Z" transform="translate(19739.000 0.000)"/><path d="M432 0L40 1080L220 1080L523 227L825 1080L1006 1080L614 0Z" transform="translate(20237.000 0.000)"/><path d="M608 -30Q449 -30 330.5 40.5Q212 111 146 237.5Q80 364 80 533Q80 710 145 839.5Q210 969 326.5 1039.5Q443 1110 600 1110Q763 1110 877.5 1035Q992 960 1049.5 821Q1107 682 1099 490L919 490L919 554Q916 753 838 851.5Q760 950 606 950Q441 950 355 844Q269 738 269 540Q269 349 355 244Q441 139 600 139Q707 139 786 188Q865 237 910 329L1081 270Q1018 127 891.5 48.5Q765 -30 608 -30ZM209 490L209 633L1007 633L1007 490Z" transform="translate(21243.000 0.000)"/><path d="" transform="translate(22424.000 0.000)"/><path d="M160 0L160 1470L338 1470L338 0Z" transform="translate(22824.000 0.000)"/><path d="M447 -30Q326 -30 244.5 14.5Q163 59 121.5 132Q80 205 80 292Q80 377 112 439Q144 501 203.5 543Q263 585 345 609Q422 630 517 645.5Q612 661 710 674Q808 687 894 699L830 662Q832 805 772 874.5Q712 944 564 944Q466 944 392.5 899Q319 854 289 755L120 806Q159 948 271 1029Q383 1110 566 1110Q713 1110 818.5 1057.5Q924 1005 970 899Q993 849 999 790.5Q1005 732 1005 668L1005 0L847 0L847 259L884 235Q823 103 713 36.5Q603 -30 447 -30ZM474 119Q570 119 640.5 153.5Q711 188 754 244.5Q797 301 810 368Q824 418 826 479Q828 540 828 574L890 547Q803 534 718.5 523Q634 512 559.5 500Q485 488 425 471Q381 457 342.5 434.5Q304 412 280.5 377.5Q257 343 257 293Q257 249 279.5 209Q302 169 349.5 144Q397 119 474 119Z" transform="translate(23322.000 0.000)"/><path d="M909 0L909 541Q909 617 895 688Q881 759 848 816Q815 873 758.5 906Q702 939 616 939Q549 939 494.5 916Q440 893 401 847.5Q362 802 340.5 732.5Q319 663 319 569L202 605Q202 761 258.5 874Q315 987 417.5 1047.5Q520 1108 659 1108Q764 1108 838 1075Q912 1042 961 987Q1010 932 1038 865Q1066 798 1077.5 728Q1089 658 1089 597L1089 0ZM139 0L139 1080L299 1080L299 791L319 791L319 0Z" transform="translate(24447.000 0.000)"/><path d="M577 -510Q492 -510 411 -484Q330 -458 262.5 -405.5Q195 -353 150 -273L313 -187Q353 -266 426.5 -302Q500 -338 578 -338Q681 -338 748.5 -300.5Q816 -263 849 -189Q882 -115 881 -5L881 290L902 290L902 1080L1060 1080L1060 -7Q1060 -52 1057.5 -92.5Q1055 -133 1047 -173Q1026 -288 964 -362.5Q902 -437 804 -473.5Q706 -510 577 -510ZM564 -30Q413 -30 305 45Q197 120 138.5 249.5Q80 379 80 541Q80 703 138.5 832Q197 961 305 1035.5Q413 1110 563 1110Q716 1110 820 1035.5Q924 961 977.5 832.5Q1031 704 1031 541Q1031 379 977.5 250Q924 121 820 45.5Q716 -30 564 -30ZM586 133Q695 133 765 185.5Q835 238 868.5 330.5Q902 423 902 541Q902 660 868 752Q834 844 765.5 895.5Q697 947 591 947Q481 947 409.5 893Q338 839 303.5 747Q269 655 269 541Q269 426 304 333.5Q339 241 409.5 187Q480 133 586 133Z" transform="translate(25656.000 0.000)"/><path d="M550 -28Q445 -28 371 5Q297 38 248 93Q199 148 171 215Q143 282 131.5 352Q120 422 120 483L120 1080L300 1080L300 539Q300 463 314 392Q328 321 361.5 264Q395 207 451.5 174Q508 141 593 141Q660 141 714.5 164Q769 187 808 232.5Q847 278 868.5 348Q890 418 890 511L1007 475Q1007 319 950.5 206Q894 93 791.5 32.5Q689 -28 550 -28ZM910 0L910 289L890 289L890 1080L1069 1080L1069 0Z" transform="translate(26856.000 0.000)"/><path d="M447 -30Q326 -30 244.5 14.5Q163 59 121.5 132Q80 205 80 292Q80 377 112 439Q144 501 203.5 543Q263 585 345 609Q422 630 517 645.5Q612 661 710 674Q808 687 894 699L830 662Q832 805 772 874.5Q712 944 564 944Q466 944 392.5 899Q319 854 289 755L120 806Q159 948 271 1029Q383 1110 566 1110Q713 1110 818.5 1057.5Q924 1005 970 899Q993 849 999 790.5Q1005 732 1005 668L1005 0L847 0L847 259L884 235Q823 103 713 36.5Q603 -30 447 -30ZM474 119Q570 119 640.5 153.5Q711 188 754 244.5Q797 301 810 368Q824 418 826 479Q828 540 828 574L890 547Q803 534 718.5 523Q634 512 559.5 500Q485 488 425 471Q381 457 342.5 434.5Q304 412 280.5 377.5Q257 343 257 293Q257 249 279.5 209Q302 169 349.5 144Q397 119 474 119Z" transform="translate(28065.000 0.000)"/><path d="M577 -510Q492 -510 411 -484Q330 -458 262.5 -405.5Q195 -353 150 -273L313 -187Q353 -266 426.5 -302Q500 -338 578 -338Q681 -338 748.5 -300.5Q816 -263 849 -189Q882 -115 881 -5L881 290L902 290L902 1080L1060 1080L1060 -7Q1060 -52 1057.5 -92.5Q1055 -133 1047 -173Q1026 -288 964 -362.5Q902 -437 804 -473.5Q706 -510 577 -510ZM564 -30Q413 -30 305 45Q197 120 138.5 249.5Q80 379 80 541Q80 703 138.5 832Q197 961 305 1035.5Q413 1110 563 1110Q716 1110 820 1035.5Q924 961 977.5 832.5Q1031 704 1031 541Q1031 379 977.5 250Q924 121 820 45.5Q716 -30 564 -30ZM586 133Q695 133 765 185.5Q835 238 868.5 330.5Q902 423 902 541Q902 660 868 752Q834 844 765.5 895.5Q697 947 591 947Q481 947 409.5 893Q338 839 303.5 747Q269 655 269 541Q269 426 304 333.5Q339 241 409.5 187Q480 133 586 133Z" transform="translate(29190.000 0.000)"/><path d="M608 -30Q449 -30 330.5 40.5Q212 111 146 237.5Q80 364 80 533Q80 710 145 839.5Q210 969 326.5 1039.5Q443 1110 600 1110Q763 1110 877.5 1035Q992 960 1049.5 821Q1107 682 1099 490L919 490L919 554Q916 753 838 851.5Q760 950 606 950Q441 950 355 844Q269 738 269 540Q269 349 355 244Q441 139 600 139Q707 139 786 188Q865 237 910 329L1081 270Q1018 127 891.5 48.5Q765 -30 608 -30ZM209 490L209 633L1007 633L1007 490Z" transform="translate(30390.000 0.000)"/><path d="M172 0L172 196L368 196L368 0Z" transform="translate(31531.000 0.000)"/></g></g>
  <rect x="446" y="368" width="214" height="50" fill="none" stroke="#B8ADA0"/>
  <circle cx="468" cy="393" r="4" fill="#C9654F"/>
  <g fill="#4B4D48"><g transform="translate(468 405) scale(0.00900000 -0.00900000)"><path d="M658 -30Q505 -30 388.5 36Q272 102 206 218.5Q140 335 140 488L140 952Q140 1105 206 1222Q272 1339 388.5 1404.5Q505 1470 658 1470Q811 1470 928 1404.5Q1045 1339 1110.5 1222Q1176 1105 1176 952L1176 488Q1176 335 1110.5 218.5Q1045 102 928 36Q811 -30 658 -30ZM658 199Q734 199 796 235.5Q858 272 894 333.5Q930 395 930 471L930 970Q930 1047 894 1108.5Q858 1170 796 1206.5Q734 1243 658 1243Q582 1243 520 1206.5Q458 1170 422 1108.5Q386 1047 386 970L386 471Q386 395 422 333.5Q458 272 520 235.5Q582 199 658 199Z" transform="translate(0.000 0.000)"/><path d="M180 0L180 247L427 247L427 0Z" transform="translate(1449.333 0.000)"/><path d="M638 -30Q497 -30 384.5 36.5Q272 103 206 221Q140 339 140 492L140 930Q140 1094 206 1215Q272 1336 390 1402Q508 1468 665 1468Q775 1468 872.5 1431.5Q970 1395 1046 1315L872 1146Q834 1191 779.5 1217Q725 1243 665 1243Q581 1243 518.5 1203.5Q456 1164 421 1100Q386 1036 386 963L386 724L342 772Q404 844 491 884.5Q578 925 673 925Q809 925 913.5 863.5Q1018 802 1077.5 695.5Q1137 589 1137 453Q1137 318 1068.5 208.5Q1000 99 887 34.5Q774 -30 638 -30ZM638 201Q708 201 766 234.5Q824 268 858.5 325.5Q893 383 893 453Q893 523 859 581Q825 639 767.5 673.5Q710 708 640 708Q570 708 512 673.5Q454 639 420 581Q386 523 386 453Q386 385 419.5 327.5Q453 270 510.5 235.5Q568 201 638 201Z" transform="translate(2189.333 0.000)"/><path d="M180 0L180 247L427 247L427 0Z" transform="translate(3566.000 0.000)"/><path d="M658 -30Q505 -30 388.5 36Q272 102 206 218.5Q140 335 140 488L140 952Q140 1105 206 1222Q272 1339 388.5 1404.5Q505 1470 658 1470Q811 1470 928 1404.5Q1045 1339 1110.5 1222Q1176 1105 1176 952L1176 488Q1176 335 1110.5 218.5Q1045 102 928 36Q811 -30 658 -30ZM658 199Q734 199 796 235.5Q858 272 894 333.5Q930 395 930 471L930 970Q930 1047 894 1108.5Q858 1170 796 1206.5Q734 1243 658 1243Q582 1243 520 1206.5Q458 1170 422 1108.5Q386 1047 386 970L386 471Q386 395 422 333.5Q458 272 520 235.5Q582 199 658 199Z" transform="translate(4306.000 0.000)"/><path d="M120 536L120 725L720 725L720 536Z" transform="translate(5755.333 0.000)"/><path d="M442 -30Q325 -30 244 14.5Q163 59 121.5 133Q80 207 80 296Q80 374 106 436.5Q132 499 186 544.5Q240 590 326 619Q391 641 478.5 657.5Q566 674 668.5 688.5Q771 703 883 720L797 671Q798 783 747 836Q696 889 575 889Q502 889 434 855Q366 821 339 738L119 807Q159 944 271.5 1027Q384 1110 575 1110Q720 1110 829 1063Q938 1016 991 909Q1020 852 1026 792.5Q1032 733 1032 663L1032 0L821 0L821 234L856 196Q783 79 685.5 24.5Q588 -30 442 -30ZM490 162Q572 162 630 191.5Q688 221 722.5 262.5Q757 304 769 341Q788 387 790.5 446.5Q793 506 793 543L867 521Q758 504 680 491Q602 478 546 466.5Q490 455 447 441Q406 426 376.5 406Q347 386 331.5 360Q316 334 316 299Q316 260 336 229Q356 198 394.5 180Q433 162 490 162Z" transform="translate(6728.667 0.000)"/><path d="M160 0L160 1470L401 1470L401 0Z" transform="translate(8014.333 0.000)"/><path d="M659 -30Q501 -30 394 45Q287 120 233 249.5Q179 379 179 540Q179 703 233 832Q287 961 391.5 1035.5Q496 1110 650 1110Q803 1110 916 1036Q1029 962 1090.5 833Q1152 704 1152 540Q1152 378 1091 249Q1030 120 919 45Q808 -30 659 -30ZM138 -480L138 1080L351 1080L351 322L381 322L381 -480ZM622 186Q716 186 777 233Q838 280 867.5 360.5Q897 441 897 540Q897 638 867 718.5Q837 799 774 846.5Q711 894 614 894Q522 894 464 849.5Q406 805 378.5 725.5Q351 646 351 540Q351 436 378.5 355.5Q406 275 465.5 230.5Q525 186 622 186Z" transform="translate(8708.333 0.000)"/><path d="M887 0L887 520Q887 571 880 633Q873 695 847.5 752.5Q822 810 771.5 847Q721 884 635 884Q589 884 544 869Q499 854 463 817.5Q427 781 404.5 717.5Q382 654 382 555L239 616Q239 754 292.5 866Q346 978 450 1044.5Q554 1111 706 1111Q826 1111 904 1071Q982 1031 1028 969Q1074 907 1096 837Q1118 767 1124.5 704.5Q1131 642 1131 603L1131 0ZM138 0L138 1440L353 1440L353 682L382 682L382 0Z" transform="translate(10073.667 0.000)"/><path d="M442 -30Q325 -30 244 14.5Q163 59 121.5 133Q80 207 80 296Q80 374 106 436.5Q132 499 186 544.5Q240 590 326 619Q391 641 478.5 657.5Q566 674 668.5 688.5Q771 703 883 720L797 671Q798 783 747 836Q696 889 575 889Q502 889 434 855Q366 821 339 738L119 807Q159 944 271.5 1027Q384 1110 575 1110Q720 1110 829 1063Q938 1016 991 909Q1020 852 1026 792.5Q1032 733 1032 663L1032 0L821 0L821 234L856 196Q783 79 685.5 24.5Q588 -30 442 -30ZM490 162Q572 162 630 191.5Q688 221 722.5 262.5Q757 304 769 341Q788 387 790.5 446.5Q793 506 793 543L867 521Q758 504 680 491Q602 478 546 466.5Q490 455 447 441Q406 426 376.5 406Q347 386 331.5 360Q316 334 316 299Q316 260 336 229Q356 198 394.5 180Q433 162 490 162Z" transform="translate(11458.000 0.000)"/><path d="M180 0L180 247L427 247L427 0Z" transform="translate(12743.667 0.000)"/><path d="M390 0L390 1177L120 1012L120 1278L390 1440L636 1440L636 0Z" transform="translate(13243.667 0.000)"/></g></g>
  <path d="M88 518h1024" stroke="#D8D0C4"/>
  <g fill="#77786F"><g transform="translate(88 558) scale(0.01050000 -0.01050000)"><path d="M140 0L140 1440L980 1440L980 1262L318 1262L318 809L860 809L860 631L318 631L318 0Z" transform="translate(0.000 0.000)"/><path d="M550 -28Q445 -28 371 5Q297 38 248 93Q199 148 171 215Q143 282 131.5 352Q120 422 120 483L120 1080L300 1080L300 539Q300 463 314 392Q328 321 361.5 264Q395 207 451.5 174Q508 141 593 141Q660 141 714.5 164Q769 187 808 232.5Q847 278 868.5 348Q890 418 890 511L1007 475Q1007 319 950.5 206Q894 93 791.5 32.5Q689 -28 550 -28ZM910 0L910 289L890 289L890 1080L1069 1080L1069 0Z" transform="translate(1020.000 0.000)"/><path d="M909 0L909 541Q909 617 895 688Q881 759 848 816Q815 873 758.5 906Q702 939 616 939Q549 939 494.5 916Q440 893 401 847.5Q362 802 340.5 732.5Q319 663 319 569L202 605Q202 761 258.5 874Q315 987 417.5 1047.5Q520 1108 659 1108Q764 1108 838 1075Q912 1042 961 987Q1010 932 1038 865Q1066 798 1077.5 728Q1089 658 1089 597L1089 0ZM139 0L139 1080L299 1080L299 791L319 791L319 0Z" transform="translate(2229.000 0.000)"/><path d="M595 -30Q431 -30 316.5 43.5Q202 117 141.5 246Q81 375 80 540Q81 708 143 836.5Q205 965 320 1037.5Q435 1110 597 1110Q768 1110 891.5 1026Q1015 942 1057 796L881 743Q846 837 769.5 889Q693 941 595 941Q484 941 412 889.5Q340 838 305 747.5Q270 657 269 540Q271 360 352.5 249.5Q434 139 595 139Q701 139 770.5 187.5Q840 236 877 328L1057 281Q1001 130 882 50Q763 -30 595 -30Z" transform="translate(3428.000 0.000)"/><path d="M743 0Q647 -20 553.5 -16.5Q460 -13 386.5 21.5Q313 56 276 130Q244 194 241.5 259.5Q239 325 239 408L239 1380L417 1380L417 416Q417 350 418.5 303Q420 256 439 222Q475 158 553.5 147Q632 136 743 153ZM20 933L20 1080L743 1080L743 933Z" transform="translate(4550.000 0.000)"/><path d="M160 1271L160 1455L338 1455L338 1271ZM160 0L160 1080L338 1080L338 0Z" transform="translate(5373.000 0.000)"/><path d="M600 -30Q439 -30 322.5 43Q206 116 143 244.5Q80 373 80 541Q80 710 144 838.5Q208 967 325 1038.5Q442 1110 600 1110Q762 1110 879 1037Q996 964 1058.5 836Q1121 708 1121 541Q1121 372 1058 243.5Q995 115 878 42.5Q761 -30 600 -30ZM600 139Q767 139 849.5 251Q932 363 932 541Q932 723 849 832Q766 941 600 941Q487 941 414 890Q341 839 305 749Q269 659 269 541Q269 359 353 249Q437 139 600 139Z" transform="translate(5871.000 0.000)"/><path d="M909 0L909 541Q909 617 895 688Q881 759 848 816Q815 873 758.5 906Q702 939 616 939Q549 939 494.5 916Q440 893 401 847.5Q362 802 340.5 732.5Q319 663 319 569L202 605Q202 761 258.5 874Q315 987 417.5 1047.5Q520 1108 659 1108Q764 1108 838 1075Q912 1042 961 987Q1010 932 1038 865Q1066 798 1077.5 728Q1089 658 1089 597L1089 0ZM139 0L139 1080L299 1080L299 791L319 791L319 0Z" transform="translate(7072.000 0.000)"/><path d="M447 -30Q326 -30 244.5 14.5Q163 59 121.5 132Q80 205 80 292Q80 377 112 439Q144 501 203.5 543Q263 585 345 609Q422 630 517 645.5Q612 661 710 674Q808 687 894 699L830 662Q832 805 772 874.5Q712 944 564 944Q466 944 392.5 899Q319 854 289 755L120 806Q159 948 271 1029Q383 1110 566 1110Q713 1110 818.5 1057.5Q924 1005 970 899Q993 849 999 790.5Q1005 732 1005 668L1005 0L847 0L847 259L884 235Q823 103 713 36.5Q603 -30 447 -30ZM474 119Q570 119 640.5 153.5Q711 188 754 244.5Q797 301 810 368Q824 418 826 479Q828 540 828 574L890 547Q803 534 718.5 523Q634 512 559.5 500Q485 488 425 471Q381 457 342.5 434.5Q304 412 280.5 377.5Q257 343 257 293Q257 249 279.5 209Q302 169 349.5 144Q397 119 474 119Z" transform="translate(8281.000 0.000)"/><path d="M160 0L160 1470L338 1470L338 0Z" transform="translate(9406.000 0.000)"/><path d="" transform="translate(9904.000 0.000)"/><path d="M595 -30Q431 -30 316.5 43.5Q202 117 141.5 246Q81 375 80 540Q81 708 143 836.5Q205 965 320 1037.5Q435 1110 597 1110Q768 1110 891.5 1026Q1015 942 1057 796L881 743Q846 837 769.5 889Q693 941 595 941Q484 941 412 889.5Q340 838 305 747.5Q270 657 269 540Q271 360 352.5 249.5Q434 139 595 139Q701 139 770.5 187.5Q840 236 877 328L1057 281Q1001 130 882 50Q763 -30 595 -30Z" transform="translate(10304.000 0.000)"/><path d="M600 -30Q439 -30 322.5 43Q206 116 143 244.5Q80 373 80 541Q80 710 144 838.5Q208 967 325 1038.5Q442 1110 600 1110Q762 1110 879 1037Q996 964 1058.5 836Q1121 708 1121 541Q1121 372 1058 243.5Q995 115 878 42.5Q761 -30 600 -30ZM600 139Q767 139 849.5 251Q932 363 932 541Q932 723 849 832Q766 941 600 941Q487 941 414 890Q341 839 305 749Q269 659 269 541Q269 359 353 249Q437 139 600 139Z" transform="translate(11396.000 0.000)"/><path d="M140 0L140 1080L299 1080L299 819L273 853Q292 903 322.5 945Q353 987 391 1014Q433 1048 486 1065.5Q539 1083 594 1086.5Q649 1090 697 1080L697 913Q641 927 574 920Q507 913 450 872Q398 834 369.5 781.5Q341 729 330 667.5Q319 606 319 542L319 0Z" transform="translate(12597.000 0.000)"/><path d="M608 -30Q449 -30 330.5 40.5Q212 111 146 237.5Q80 364 80 533Q80 710 145 839.5Q210 969 326.5 1039.5Q443 1110 600 1110Q763 1110 877.5 1035Q992 960 1049.5 821Q1107 682 1099 490L919 490L919 554Q916 753 838 851.5Q760 950 606 950Q441 950 355 844Q269 738 269 540Q269 349 355 244Q441 139 600 139Q707 139 786 188Q865 237 910 329L1081 270Q1018 127 891.5 48.5Q765 -30 608 -30ZM209 490L209 633L1007 633L1007 490Z" transform="translate(13324.000 0.000)"/><path d="" transform="translate(14505.000 0.000)"/><path d="M243 510Q192 510 156 544Q120 578 120 630Q120 682 156 716Q192 750 243 750Q291 750 325.5 716Q360 682 360 630Q360 578 325.5 544Q291 510 243 510Z" transform="translate(14905.000 0.000)"/><path d="" transform="translate(15385.000 0.000)"/><path d="M743 0Q647 -20 553.5 -16.5Q460 -13 386.5 21.5Q313 56 276 130Q244 194 241.5 259.5Q239 325 239 408L239 1380L417 1380L417 416Q417 350 418.5 303Q420 256 439 222Q475 158 553.5 147Q632 136 743 153ZM20 933L20 1080L743 1080L743 933Z" transform="translate(15785.000 0.000)"/><path d="M290 -480L499 88L502 -80L30 1080L217 1080L587 147L523 147L870 1080L1051 1080L463 -480Z" transform="translate(16578.000 0.000)"/><path d="M636 -30Q484 -30 380 45.5Q276 121 222.5 250Q169 379 169 541Q169 704 222.5 832.5Q276 961 380.5 1035.5Q485 1110 637 1110Q787 1110 895.5 1035.5Q1004 961 1062 832Q1120 703 1120 541Q1120 379 1062 249.5Q1004 120 895.5 45Q787 -30 636 -30ZM139 -480L139 1080L298 1080L298 285L318 285L318 -480ZM614 133Q720 133 790.5 187Q861 241 896 333.5Q931 426 931 541Q931 655 896 747Q861 839 790 893Q719 947 609 947Q504 947 435 895.5Q366 844 332 752Q298 660 298 541Q298 423 331.5 330.5Q365 238 435 185.5Q505 133 614 133Z" transform="translate(17654.000 0.000)"/><path d="M608 -30Q449 -30 330.5 40.5Q212 111 146 237.5Q80 364 80 533Q80 710 145 839.5Q210 969 326.5 1039.5Q443 1110 600 1110Q763 1110 877.5 1035Q992 960 1049.5 821Q1107 682 1099 490L919 490L919 554Q916 753 838 851.5Q760 950 606 950Q441 950 355 844Q269 738 269 540Q269 349 355 244Q441 139 600 139Q707 139 786 188Q865 237 910 329L1081 270Q1018 127 891.5 48.5Q765 -30 608 -30ZM209 490L209 633L1007 633L1007 490Z" transform="translate(18854.000 0.000)"/><path d="M564 -30Q413 -30 305 45Q197 120 138.5 249.5Q80 379 80 541Q80 703 138.5 832Q197 961 305 1035.5Q413 1110 563 1110Q716 1110 820 1035.5Q924 961 977.5 832.5Q1031 704 1031 541Q1031 379 977.5 250Q924 121 820 45.5Q716 -30 564 -30ZM586 133Q695 133 765 185.5Q835 238 868.5 330.5Q902 423 902 541Q902 660 868 752Q834 844 765.5 895.5Q697 947 591 947Q481 947 409.5 893Q338 839 303.5 747Q269 655 269 541Q269 426 304 333.5Q339 241 409.5 187Q480 133 586 133ZM902 0L902 795L882 795L882 1440L1061 1440L1061 0Z" transform="translate(20035.000 0.000)"/><path d="" transform="translate(21236.000 0.000)"/><path d="M1431 0L1432 691Q1432 812 1367.5 880.5Q1303 949 1200 949Q1140 949 1086 921Q1032 893 998 835Q964 777 964 686L870 724Q868 839 917.5 925.5Q967 1012 1053 1060Q1139 1108 1247 1108Q1416 1108 1513 1005Q1610 902 1610 730L1609 0ZM139 0L139 1080L298 1080L298 791L318 791L318 0ZM786 0L787 684Q787 807 723 878Q659 949 553 949Q448 949 383 876.5Q318 804 318 686L224 742Q224 847 274 929.5Q324 1012 410 1060Q496 1108 605 1108Q714 1108 795 1061.5Q876 1015 920 929.5Q964 844 964 727L963 0Z" transform="translate(21636.000 0.000)"/><path d="M608 -30Q449 -30 330.5 40.5Q212 111 146 237.5Q80 364 80 533Q80 710 145 839.5Q210 969 326.5 1039.5Q443 1110 600 1110Q763 1110 877.5 1035Q992 960 1049.5 821Q1107 682 1099 490L919 490L919 554Q916 753 838 851.5Q760 950 606 950Q441 950 355 844Q269 738 269 540Q269 349 355 244Q441 139 600 139Q707 139 786 188Q865 237 910 329L1081 270Q1018 127 891.5 48.5Q765 -30 608 -30ZM209 490L209 633L1007 633L1007 490Z" transform="translate(23356.000 0.000)"/><path d="M743 0Q647 -20 553.5 -16.5Q460 -13 386.5 21.5Q313 56 276 130Q244 194 241.5 259.5Q239 325 239 408L239 1380L417 1380L417 416Q417 350 418.5 303Q420 256 439 222Q475 158 553.5 147Q632 136 743 153ZM20 933L20 1080L743 1080L743 933Z" transform="translate(24537.000 0.000)"/><path d="M447 -30Q326 -30 244.5 14.5Q163 59 121.5 132Q80 205 80 292Q80 377 112 439Q144 501 203.5 543Q263 585 345 609Q422 630 517 645.5Q612 661 710 674Q808 687 894 699L830 662Q832 805 772 874.5Q712 944 564 944Q466 944 392.5 899Q319 854 289 755L120 806Q159 948 271 1029Q383 1110 566 1110Q713 1110 818.5 1057.5Q924 1005 970 899Q993 849 999 790.5Q1005 732 1005 668L1005 0L847 0L847 259L884 235Q823 103 713 36.5Q603 -30 447 -30ZM474 119Q570 119 640.5 153.5Q711 188 754 244.5Q797 301 810 368Q824 418 826 479Q828 540 828 574L890 547Q803 534 718.5 523Q634 512 559.5 500Q485 488 425 471Q381 457 342.5 434.5Q304 412 280.5 377.5Q257 343 257 293Q257 249 279.5 209Q302 169 349.5 144Q397 119 474 119Z" transform="translate(25360.000 0.000)"/><path d="M636 -30Q484 -30 380 45.5Q276 121 222.5 250Q169 379 169 541Q169 704 222.5 832.5Q276 961 380.5 1035.5Q485 1110 637 1110Q787 1110 895.5 1035.5Q1004 961 1062 832Q1120 703 1120 541Q1120 379 1062 249.5Q1004 120 895.5 45Q787 -30 636 -30ZM139 -480L139 1080L298 1080L298 285L318 285L318 -480ZM614 133Q720 133 790.5 187Q861 241 896 333.5Q931 426 931 541Q931 655 896 747Q861 839 790 893Q719 947 609 947Q504 947 435 895.5Q366 844 332 752Q298 660 298 541Q298 423 331.5 330.5Q365 238 435 185.5Q505 133 614 133Z" transform="translate(26485.000 0.000)"/><path d="M140 0L140 1080L299 1080L299 819L273 853Q292 903 322.5 945Q353 987 391 1014Q433 1048 486 1065.5Q539 1083 594 1086.5Q649 1090 697 1080L697 913Q641 927 574 920Q507 913 450 872Q398 834 369.5 781.5Q341 729 330 667.5Q319 606 319 542L319 0Z" transform="translate(27685.000 0.000)"/><path d="M600 -30Q439 -30 322.5 43Q206 116 143 244.5Q80 373 80 541Q80 710 144 838.5Q208 967 325 1038.5Q442 1110 600 1110Q762 1110 879 1037Q996 964 1058.5 836Q1121 708 1121 541Q1121 372 1058 243.5Q995 115 878 42.5Q761 -30 600 -30ZM600 139Q767 139 849.5 251Q932 363 932 541Q932 723 849 832Q766 941 600 941Q487 941 414 890Q341 839 305 749Q269 659 269 541Q269 359 353 249Q437 139 600 139Z" transform="translate(28412.000 0.000)"/><path d="M577 -510Q492 -510 411 -484Q330 -458 262.5 -405.5Q195 -353 150 -273L313 -187Q353 -266 426.5 -302Q500 -338 578 -338Q681 -338 748.5 -300.5Q816 -263 849 -189Q882 -115 881 -5L881 290L902 290L902 1080L1060 1080L1060 -7Q1060 -52 1057.5 -92.5Q1055 -133 1047 -173Q1026 -288 964 -362.5Q902 -437 804 -473.5Q706 -510 577 -510ZM564 -30Q413 -30 305 45Q197 120 138.5 249.5Q80 379 80 541Q80 703 138.5 832Q197 961 305 1035.5Q413 1110 563 1110Q716 1110 820 1035.5Q924 961 977.5 832.5Q1031 704 1031 541Q1031 379 977.5 250Q924 121 820 45.5Q716 -30 564 -30ZM586 133Q695 133 765 185.5Q835 238 868.5 330.5Q902 423 902 541Q902 660 868 752Q834 844 765.5 895.5Q697 947 591 947Q481 947 409.5 893Q338 839 303.5 747Q269 655 269 541Q269 426 304 333.5Q339 241 409.5 187Q480 133 586 133Z" transform="translate(29613.000 0.000)"/><path d="M140 0L140 1080L299 1080L299 819L273 853Q292 903 322.5 945Q353 987 391 1014Q433 1048 486 1065.5Q539 1083 594 1086.5Q649 1090 697 1080L697 913Q641 927 574 920Q507 913 450 872Q398 834 369.5 781.5Q341 729 330 667.5Q319 606 319 542L319 0Z" transform="translate(30813.000 0.000)"/><path d="M447 -30Q326 -30 244.5 14.5Q163 59 121.5 132Q80 205 80 292Q80 377 112 439Q144 501 203.5 543Q263 585 345 609Q422 630 517 645.5Q612 661 710 674Q808 687 894 699L830 662Q832 805 772 874.5Q712 944 564 944Q466 944 392.5 899Q319 854 289 755L120 806Q159 948 271 1029Q383 1110 566 1110Q713 1110 818.5 1057.5Q924 1005 970 899Q993 849 999 790.5Q1005 732 1005 668L1005 0L847 0L847 259L884 235Q823 103 713 36.5Q603 -30 447 -30ZM474 119Q570 119 640.5 153.5Q711 188 754 244.5Q797 301 810 368Q824 418 826 479Q828 540 828 574L890 547Q803 534 718.5 523Q634 512 559.5 500Q485 488 425 471Q381 457 342.5 434.5Q304 412 280.5 377.5Q257 343 257 293Q257 249 279.5 209Q302 169 349.5 144Q397 119 474 119Z" transform="translate(31525.000 0.000)"/><path d="M1431 0L1432 691Q1432 812 1367.5 880.5Q1303 949 1200 949Q1140 949 1086 921Q1032 893 998 835Q964 777 964 686L870 724Q868 839 917.5 925.5Q967 1012 1053 1060Q1139 1108 1247 1108Q1416 1108 1513 1005Q1610 902 1610 730L1609 0ZM139 0L139 1080L298 1080L298 791L318 791L318 0ZM786 0L787 684Q787 807 723 878Q659 949 553 949Q448 949 383 876.5Q318 804 318 686L224 742Q224 847 274 929.5Q324 1012 410 1060Q496 1108 605 1108Q714 1108 795 1061.5Q876 1015 920 929.5Q964 844 964 727L963 0Z" transform="translate(32650.000 0.000)"/><path d="M1431 0L1432 691Q1432 812 1367.5 880.5Q1303 949 1200 949Q1140 949 1086 921Q1032 893 998 835Q964 777 964 686L870 724Q868 839 917.5 925.5Q967 1012 1053 1060Q1139 1108 1247 1108Q1416 1108 1513 1005Q1610 902 1610 730L1609 0ZM139 0L139 1080L298 1080L298 791L318 791L318 0ZM786 0L787 684Q787 807 723 878Q659 949 553 949Q448 949 383 876.5Q318 804 318 686L224 742Q224 847 274 929.5Q324 1012 410 1060Q496 1108 605 1108Q714 1108 795 1061.5Q876 1015 920 929.5Q964 844 964 727L963 0Z" transform="translate(34380.000 0.000)"/><path d="M160 1271L160 1455L338 1455L338 1271ZM160 0L160 1080L338 1080L338 0Z" transform="translate(36110.000 0.000)"/><path d="M909 0L909 541Q909 617 895 688Q881 759 848 816Q815 873 758.5 906Q702 939 616 939Q549 939 494.5 916Q440 893 401 847.5Q362 802 340.5 732.5Q319 663 319 569L202 605Q202 761 258.5 874Q315 987 417.5 1047.5Q520 1108 659 1108Q764 1108 838 1075Q912 1042 961 987Q1010 932 1038 865Q1066 798 1077.5 728Q1089 658 1089 597L1089 0ZM139 0L139 1080L299 1080L299 791L319 791L319 0Z" transform="translate(36608.000 0.000)"/><path d="M577 -510Q492 -510 411 -484Q330 -458 262.5 -405.5Q195 -353 150 -273L313 -187Q353 -266 426.5 -302Q500 -338 578 -338Q681 -338 748.5 -300.5Q816 -263 849 -189Q882 -115 881 -5L881 290L902 290L902 1080L1060 1080L1060 -7Q1060 -52 1057.5 -92.5Q1055 -133 1047 -173Q1026 -288 964 -362.5Q902 -437 804 -473.5Q706 -510 577 -510ZM564 -30Q413 -30 305 45Q197 120 138.5 249.5Q80 379 80 541Q80 703 138.5 832Q197 961 305 1035.5Q413 1110 563 1110Q716 1110 820 1035.5Q924 961 977.5 832.5Q1031 704 1031 541Q1031 379 977.5 250Q924 121 820 45.5Q716 -30 564 -30ZM586 133Q695 133 765 185.5Q835 238 868.5 330.5Q902 423 902 541Q902 660 868 752Q834 844 765.5 895.5Q697 947 591 947Q481 947 409.5 893Q338 839 303.5 747Q269 655 269 541Q269 426 304 333.5Q339 241 409.5 187Q480 133 586 133Z" transform="translate(37817.000 0.000)"/><path d="" transform="translate(39017.000 0.000)"/><path d="M243 510Q192 510 156 544Q120 578 120 630Q120 682 156 716Q192 750 243 750Q291 750 325.5 716Q360 682 360 630Q360 578 325.5 544Q291 510 243 510Z" transform="translate(39417.000 0.000)"/><path d="" transform="translate(39897.000 0.000)"/><path d="M160 0L160 1440L338 1440L338 169L1006 169L1006 0Z" transform="translate(40297.000 0.000)"/><path d="M160 0L160 1440L338 1440L338 169L1006 169L1006 0Z" transform="translate(41333.000 0.000)"/><path d="M492 0L10 1440L195 1440L614 189L1037 1440L1222 1440L740 0Z" transform="translate(42209.000 0.000)"/><path d="M140 0L140 1440L302 1440L846 293L1387 1440L1551 1440L1551 1L1382 1L1382 1049L893 0L798 0L309 1049L309 0Z" transform="translate(43441.000 0.000)"/><path d="" transform="translate(45132.000 0.000)"/><path d="M743 0Q647 -20 553.5 -16.5Q460 -13 386.5 21.5Q313 56 276 130Q244 194 241.5 259.5Q239 325 239 408L239 1380L417 1380L417 416Q417 350 418.5 303Q420 256 439 222Q475 158 553.5 147Q632 136 743 153ZM20 933L20 1080L743 1080L743 933Z" transform="translate(45532.000 0.000)"/><path d="M600 -30Q439 -30 322.5 43Q206 116 143 244.5Q80 373 80 541Q80 710 144 838.5Q208 967 325 1038.5Q442 1110 600 1110Q762 1110 879 1037Q996 964 1058.5 836Q1121 708 1121 541Q1121 372 1058 243.5Q995 115 878 42.5Q761 -30 600 -30ZM600 139Q767 139 849.5 251Q932 363 932 541Q932 723 849 832Q766 941 600 941Q487 941 414 890Q341 839 305 749Q269 659 269 541Q269 359 353 249Q437 139 600 139Z" transform="translate(46310.000 0.000)"/><path d="M600 -30Q439 -30 322.5 43Q206 116 143 244.5Q80 373 80 541Q80 710 144 838.5Q208 967 325 1038.5Q442 1110 600 1110Q762 1110 879 1037Q996 964 1058.5 836Q1121 708 1121 541Q1121 372 1058 243.5Q995 115 878 42.5Q761 -30 600 -30ZM600 139Q767 139 849.5 251Q932 363 932 541Q932 723 849 832Q766 941 600 941Q487 941 414 890Q341 839 305 749Q269 659 269 541Q269 359 353 249Q437 139 600 139Z" transform="translate(47511.000 0.000)"/><path d="M160 0L160 1470L338 1470L338 0Z" transform="translate(48712.000 0.000)"/><path d="M595 -30Q431 -30 316.5 43.5Q202 117 141.5 246Q81 375 80 540Q81 708 143 836.5Q205 965 320 1037.5Q435 1110 597 1110Q768 1110 891.5 1026Q1015 942 1057 796L881 743Q846 837 769.5 889Q693 941 595 941Q484 941 412 889.5Q340 838 305 747.5Q270 657 269 540Q271 360 352.5 249.5Q434 139 595 139Q701 139 770.5 187.5Q840 236 877 328L1057 281Q1001 130 882 50Q763 -30 595 -30Z" transform="translate(49210.000 0.000)"/><path d="M909 0L909 541Q909 617 895 688Q881 759 848 816Q815 873 758.5 906Q702 939 616 939Q549 939 494.5 916Q440 893 401 847.5Q362 802 340.5 732.5Q319 663 319 569L202 605Q202 761 258.5 874Q315 987 417.5 1047.5Q520 1108 659 1108Q764 1108 838 1075Q912 1042 961 987Q1010 932 1038 865Q1066 798 1077.5 728Q1089 658 1089 597L1089 0ZM139 0L139 1440L299 1440L299 645L319 645L319 0Z" transform="translate(50332.000 0.000)"/><path d="M447 -30Q326 -30 244.5 14.5Q163 59 121.5 132Q80 205 80 292Q80 377 112 439Q144 501 203.5 543Q263 585 345 609Q422 630 517 645.5Q612 661 710 674Q808 687 894 699L830 662Q832 805 772 874.5Q712 944 564 944Q466 944 392.5 899Q319 854 289 755L120 806Q159 948 271 1029Q383 1110 566 1110Q713 1110 818.5 1057.5Q924 1005 970 899Q993 849 999 790.5Q1005 732 1005 668L1005 0L847 0L847 259L884 235Q823 103 713 36.5Q603 -30 447 -30ZM474 119Q570 119 640.5 153.5Q711 188 754 244.5Q797 301 810 368Q824 418 826 479Q828 540 828 574L890 547Q803 534 718.5 523Q634 512 559.5 500Q485 488 425 471Q381 457 342.5 434.5Q304 412 280.5 377.5Q257 343 257 293Q257 249 279.5 209Q302 169 349.5 144Q397 119 474 119Z" transform="translate(51541.000 0.000)"/><path d="M160 1271L160 1455L338 1455L338 1271ZM160 0L160 1080L338 1080L338 0Z" transform="translate(52666.000 0.000)"/><path d="M909 0L909 541Q909 617 895 688Q881 759 848 816Q815 873 758.5 906Q702 939 616 939Q549 939 494.5 916Q440 893 401 847.5Q362 802 340.5 732.5Q319 663 319 569L202 605Q202 761 258.5 874Q315 987 417.5 1047.5Q520 1108 659 1108Q764 1108 838 1075Q912 1042 961 987Q1010 932 1038 865Q1066 798 1077.5 728Q1089 658 1089 597L1089 0ZM139 0L139 1080L299 1080L299 791L319 791L319 0Z" transform="translate(53164.000 0.000)"/></g></g>
</svg>
